<svg class="typst-doc" viewBox="0 0 595.2755905511812 841.8897637795276" width="595.2755905511812pt" height="841.8897637795276pt" xmlns="http://www.w3.org/2000/svg" xmlns:xlink="http://www.w3.org/1999/xlink" xmlns:h5="http://www.w3.org/1999/xhtml">
    <path class="typst-shape" fill="#ffffff" fill-rule="nonzero" d="M 0 0v 841.8898 h 595.2756 v -841.8898 Z "/>
    <g>
        <g class="typst-group" transform="matrix(1 0 0 1 181.68129527559054 70.86614173228347)">
            <g>
                <g class="typst-group" transform="matrix(1 0 0 1 44.29845725534311 0)">
                    <g>
                        <path class="typst-shape" fill="#f5f5f5" fill-rule="nonzero" transform="matrix(1 0 0 1 90.67266591676038 98.7784690888639)" d="M 0 0v 110.686165 h 13.498313 v -110.686165 h -13.498313 Z "/>
                        <path class="typst-shape" fill="#f5f5f5" fill-rule="nonzero" transform="matrix(1 0 0 1 117.66929133858267 98.7784690888639)" d="M 0 0v 110.686165 h 13.498313 v -110.686165 h -13.498313 Z "/>
                        <path class="typst-shape" fill="#000000" fill-rule="nonzero" transform="matrix(1 0 0 1 83.6535433070866 195.96632060742408)" d="M 0 0v 10.79865 h 5.6692915 v -10.79865 h -5.6692915 Z "/>
                        <path class="typst-shape" fill="#000000" fill-rule="nonzero" transform="matrix(1 0 0 1 72.31496062992125 182.46800789651294)" d="M 0 0v 10.79865 h 17.007874 v -10.79865 h -17.007874 Z "/>
                        <path class="typst-shape" fill="#000000" fill-rule="nonzero" transform="matrix(1 0 0 1 72.31496062992125 168.9696951856018)" d="M 0 0v 10.79865 h 17.007874 v -10.79865 h -17.007874 Z "/>
                        <path class="typst-shape" fill="#000000" fill-rule="nonzero" transform="matrix(1 0 0 1 66.64566929133858 155.47138247469067)" d="M 0 0v 10.79865 h 22.677166 v -10.79865 h -22.677166 Z "/>
                        <path class="typst-shape" fill="#000000" fill-rule="nonzero" transform="matrix(1 0 0 1 55.307086614173215 141.97306976377953)" d="M 0 0v 10.79865 h 34.015747 v -10.79865 h -34.015747 Z "/>
                        <path class="typst-shape" fill="#000000" fill-rule="nonzero" transform="matrix(1 0 0 1 49.637795275590534 128.4747570528684)" d="M 0 0v 10.79865 h 39.68504 v -10.79865 h -39.68504 Z "/>
                        <path class="typst-shape" fill="#000000" fill-rule="nonzero" transform="matrix(1 0 0 1 26.960629921259827 114.97644434195726)" d="M 0 0v 10.79865 h 62.362206 v -10.79865 h -62.362206 Z "/>
                        <path class="typst-shape" fill="#000000" fill-rule="nonzero" transform="matrix(1 0 0 1 9.952755905511793 101.47813163104612)" d="M 0 0v 10.79865 h 79.37008 v -10.79865 h -79.37008 Z "/>
                        <path class="typst-shape" fill="none" stroke="#000000" stroke-width="1" stroke-linecap="butt" stroke-linejoin="miter" stroke-miterlimit="4" transform="matrix(1 0 0 1 4.283464566929124 210.88195615298088)" d="M 0 0h 85.03937 "/>
                        <path class="typst-shape" fill="none" stroke="#000000" stroke-width="1" stroke-linecap="butt" stroke-linejoin="miter" stroke-miterlimit="4" transform="matrix(1 0 0 1 89.03937007874016 209.4646333183352)" d="M 0 0v 2.8346457 "/>
                        <path class="typst-shape" fill="none" transform="matrix(1 0 0 1 87.03937007874016 215.13392465691788)" d="M 0 0h 4 v 5.64 h -4 v -5.64 Z "/>
                        <g class="typst-group">
                            <g>
                                <g class="typst-group" transform="matrix(1 0 0 1 87.0393699527559 215.13392460967378)">
                                    <g>
                                        <g class="typst-text" transform="matrix(1 0 0 -1 0 5.464)">
                                            <use xlink:href="#g382FD0E72EF4769A82A5120666FF09ED" x="0" y="0" fill="#000000" fill-rule="nonzero"/>
                                        </g>
                                    </g>
                                </g>
                            </g>
                        </g>
                        <path class="typst-shape" fill="none" stroke="#000000" stroke-width="1" stroke-linecap="butt" stroke-linejoin="miter" stroke-miterlimit="4" transform="matrix(1 0 0 1 60.69291338582676 209.4646333183352)" d="M 0 0v 2.8346457 "/>
                        <path class="typst-shape" fill="none" transform="matrix(1 0 0 1 58.692913385826756 215.13392465691788)" d="M 0 0h 4 v 5.64 h -4 v -5.64 Z "/>
                        <g class="typst-group">
                            <g>
                                <g class="typst-group" transform="matrix(1 0 0 1 58.69291325984251 215.13392460967378)">
                                    <g>
                                        <g class="typst-text" transform="matrix(1 0 0 -1 0 5.464)">
                                            <use xlink:href="#g744AD155D1F0EDF9ADE75970A60A1F" x="0" y="0" fill="#000000" fill-rule="nonzero"/>
                                        </g>
                                    </g>
                                </g>
                            </g>
                        </g>
                        <path class="typst-shape" fill="none" stroke="#000000" stroke-width="1" stroke-linecap="butt" stroke-linejoin="miter" stroke-miterlimit="4" transform="matrix(1 0 0 1 32.34645669291338 209.4646333183352)" d="M 0 0v 2.8346457 "/>
                        <path class="typst-shape" fill="none" transform="matrix(1 0 0 1 28.346456692913385 215.13392465691788)" d="M 0 0h 8 v 5.64 h -8 v -5.64 Z "/>
                        <g class="typst-group">
                            <g>
                                <g class="typst-group" transform="matrix(1 0 0 1 28.346456582677156 215.13392460967378)">
                                    <g>
                                        <g class="typst-text" transform="matrix(1 0 0 -1 0 5.464)">
                                            <use xlink:href="#g5C5E020B11E944F01C3D21BECA4A96D6" x="0" y="0" fill="#000000" fill-rule="nonzero"/>
                                        </g>
                                        <g class="typst-text" transform="matrix(1 0 0 -1 4 5.464)">
                                            <use xlink:href="#g382FD0E72EF4769A82A5120666FF09ED" x="0" y="0" fill="#000000" fill-rule="nonzero"/>
                                        </g>
                                    </g>
                                </g>
                            </g>
                        </g>
                        <path class="typst-shape" fill="none" stroke="#000000" stroke-width="1" stroke-linecap="butt" stroke-linejoin="miter" stroke-miterlimit="4" transform="matrix(1 0 0 1 3.999999999999996 209.4646333183352)" d="M 0 0v 2.8346457 "/>
                        <path class="typst-shape" fill="none" transform="matrix(1 0 0 1 0 215.13392465691788)" d="M 0 0h 8 v 5.64 h -8 v -5.64 Z "/>
                        <g class="typst-group">
                            <g>
                                <g class="typst-group" transform="matrix(1 0 0 1 -0.000000110236224669981 215.13392460967378)">
                                    <g>
                                        <g class="typst-text" transform="matrix(1 0 0 -1 0 5.464)">
                                            <use xlink:href="#g5C5E020B11E944F01C3D21BECA4A96D6" x="0" y="0" fill="#000000" fill-rule="nonzero"/>
                                        </g>
                                        <g class="typst-text" transform="matrix(1 0 0 -1 4 5.464)">
                                            <use xlink:href="#g744AD155D1F0EDF9ADE75970A60A1F" x="0" y="0" fill="#000000" fill-rule="nonzero"/>
                                        </g>
                                    </g>
                                </g>
                            </g>
                        </g>
                        <path class="typst-shape" fill="none" transform="matrix(1 0 0 1 16.401149606299196 226.3011530033746)" d="M 0 0h 60.804 v 6.012 h -60.804 v -6.012 Z "/>
                        <g class="typst-group">
                            <g>
                                <g class="typst-group" transform="matrix(1 0 0 1 16.40114946456692 226.3011530033746)">
                                    <g>
                                        <g class="typst-text" transform="matrix(1 0 0 -1 0 5.922000000000001)">
                                            <use xlink:href="#gDCA99CF9BF5D585A2BF7D4E3E2A8026C" x="0" y="0" fill="#000000" fill-rule="nonzero"/>
                                            <use xlink:href="#g50F9606A483E1FAAA9EE477597D96533" x="2.673" y="0" fill="#000000" fill-rule="nonzero"/>
                                            <use xlink:href="#gF2FC65B7E3D14A7D6247D8AEEBF330D0" x="7.551000000000001" y="0" fill="#000000" fill-rule="nonzero"/>
                                            <use xlink:href="#g3B63C1D085B203AE10B5BD9D213CEF83" x="10.395000000000001" y="0" fill="#000000" fill-rule="nonzero"/>
                                            <use xlink:href="#g4DD300AF3E1EA061A36A3EC05A80C3D8" x="14.418000000000001" y="0" fill="#000000" fill-rule="nonzero"/>
                                            <use xlink:href="#g50446FB891D926F440957AD50C0B02BD" x="17.766000000000002" y="0" fill="#000000" fill-rule="nonzero"/>
                                            <use xlink:href="#g3B63C1D085B203AE10B5BD9D213CEF83" x="21.276000000000003" y="0" fill="#000000" fill-rule="nonzero"/>
                                            <use xlink:href="#gABD003B53FE1CABCB379D85933D0897" x="25.362000000000002" y="0" fill="#000000" fill-rule="nonzero"/>
                                            <use xlink:href="#gF2FC65B7E3D14A7D6247D8AEEBF330D0" x="29.214000000000002" y="0" fill="#000000" fill-rule="nonzero"/>
                                            <use xlink:href="#g2D615C0E6545681B01737447476EB751" x="32.058" y="0" fill="#000000" fill-rule="nonzero"/>
                                            <use xlink:href="#g9F3FE580E1A588B65030B2403613B197" x="34.497" y="0" fill="#000000" fill-rule="nonzero"/>
                                            <use xlink:href="#g50F9606A483E1FAAA9EE477597D96533" x="39.033" y="0" fill="#000000" fill-rule="nonzero"/>
                                            <use xlink:href="#gA5626BAA4730CE828598EC3EB1222894" x="46.161" y="0" fill="#000000" fill-rule="nonzero"/>
                                            <use xlink:href="#g2D615C0E6545681B01737447476EB751" x="50.526" y="0" fill="#000000" fill-rule="nonzero"/>
                                            <use xlink:href="#gCCB3B3FDCF8445EBB10A0074A51EEBC9" x="52.965" y="0" fill="#000000" fill-rule="nonzero"/>
                                            <use xlink:href="#g3B63C1D085B203AE10B5BD9D213CEF83" x="56.781000000000006" y="0" fill="#000000" fill-rule="nonzero"/>
                                        </g>
                                    </g>
                                </g>
                            </g>
                        </g>
                        <path class="typst-shape" fill="#000000" fill-rule="nonzero" transform="matrix(1 0 0 1 92.0224971878515 15.401927259092606)" d="M 0 0v 61.492313 h 10.79865 v -61.492313 h -10.79865 Z "/>
                        <path class="typst-shape" fill="#000000" fill-rule="nonzero" transform="matrix(1 0 0 1 105.52080989876264 49.837622797150345)" d="M 0 0v 27.056618 h 10.79865 v -27.056618 h -10.79865 Z "/>
                        <path class="typst-shape" fill="#000000" fill-rule="nonzero" transform="matrix(1 0 0 1 119.01912260967377 35.079467566554165)" d="M 0 0v 41.814774 h 10.79865 v -41.814774 h -10.79865 Z "/>
                        <path class="typst-shape" fill="#000000" fill-rule="nonzero" transform="matrix(1 0 0 1 132.5174353205849 39.99885264341957)" d="M 0 0v 36.89539 h 10.79865 v -36.89539 h -10.79865 Z "/>
                        <path class="typst-shape" fill="none" stroke="#000000" stroke-width="1" stroke-linecap="butt" stroke-linejoin="miter" stroke-miterlimit="4" transform="matrix(1 0 0 1 87.90551181102362 3.1034645669291225)" d="M 0 0m 0 73.79078 v -73.79078 "/>
                        <path class="typst-shape" fill="none" stroke="#000000" stroke-width="1" stroke-linecap="butt" stroke-linejoin="miter" stroke-miterlimit="4" transform="matrix(1 0 0 1 86.48818897637794 76.61077615298088)" d="M 0 0m 2.8346457 0 h -2.8346457 "/>
                        <path class="typst-shape" fill="none" transform="matrix(1 0 0 1 79.6535433070866 73.79077615298087)" d="M 0 0h 4 v 5.64 h -4 v -5.64 Z "/>
                        <g class="typst-group">
                            <g>
                                <g class="typst-group" transform="matrix(1 0 0 1 79.65354318110235 73.7907761057368)">
                                    <g>
                                        <g class="typst-text" transform="matrix(1 0 0 -1 0 5.464)">
                                            <use xlink:href="#g382FD0E72EF4769A82A5120666FF09ED" x="0" y="0" fill="#000000" fill-rule="nonzero"/>
                                        </g>
                                    </g>
                                </g>
                            </g>
                        </g>
                        <path class="typst-shape" fill="none" stroke="#000000" stroke-width="1" stroke-linecap="butt" stroke-linejoin="miter" stroke-miterlimit="4" transform="matrix(1 0 0 1 86.48818897637794 52.01385076865391)" d="M 0 0m 2.8346457 0 h -2.8346457 "/>
                        <path class="typst-shape" fill="none" transform="matrix(1 0 0 1 75.65354330708661 49.19385076865391)" d="M 0 0h 8 v 5.64 h -8 v -5.64 Z "/>
                        <g class="typst-group">
                            <g>
                                <g class="typst-group" transform="matrix(1 0 0 1 75.65354319685038 49.19385072140982)">
                                    <g>
                                        <g class="typst-text" transform="matrix(1 0 0 -1 0 5.464)">
                                            <use xlink:href="#g5C5E020B11E944F01C3D21BECA4A96D6" x="0" y="0" fill="#000000" fill-rule="nonzero"/>
                                        </g>
                                        <g class="typst-text" transform="matrix(1 0 0 -1 4 5.464)">
                                            <use xlink:href="#g382FD0E72EF4769A82A5120666FF09ED" x="0" y="0" fill="#000000" fill-rule="nonzero"/>
                                        </g>
                                    </g>
                                </g>
                            </g>
                        </g>
                        <path class="typst-shape" fill="none" stroke="#000000" stroke-width="1" stroke-linecap="butt" stroke-linejoin="miter" stroke-miterlimit="4" transform="matrix(1 0 0 1 86.48818897637794 27.41692538432695)" d="M 0 0m 2.8346457 0 h -2.8346457 "/>
                        <path class="typst-shape" fill="none" transform="matrix(1 0 0 1 75.65354330708661 24.59692538432695)" d="M 0 0h 8 v 5.64 h -8 v -5.64 Z "/>
                        <g class="typst-group">
                            <g>
                                <g class="typst-group" transform="matrix(1 0 0 1 75.65354319685038 24.596925337082855)">
                                    <g>
                                        <g class="typst-text" transform="matrix(1 0 0 -1 0 5.464)">
                                            <use xlink:href="#g2BF95CB904F6E48C03E4E067EAED4274" x="0" y="0" fill="#000000" fill-rule="nonzero"/>
                                        </g>
                                        <g class="typst-text" transform="matrix(1 0 0 -1 4 5.464)">
                                            <use xlink:href="#g382FD0E72EF4769A82A5120666FF09ED" x="0" y="0" fill="#000000" fill-rule="nonzero"/>
                                        </g>
                                    </g>
                                </g>
                            </g>
                        </g>
                        <path class="typst-shape" fill="none" stroke="#000000" stroke-width="1" stroke-linecap="butt" stroke-linejoin="miter" stroke-miterlimit="4" transform="matrix(1 0 0 1 86.48818897637794 2.8199999999999945)" d="M 0 0m 2.8346457 0 h -2.8346457 "/>
                        <path class="typst-shape" fill="none" transform="matrix(1 0 0 1 75.65354330708661 0)" d="M 0 0h 8 v 5.64 h -8 v -5.64 Z "/>
                        <g class="typst-group">
                            <g>
                                <g class="typst-group" transform="matrix(1 0 0 1 75.65354319685038 -0.00000004724410018752678)">
                                    <g>
                                        <g class="typst-text" transform="matrix(1 0 0 -1 0 5.464)">
                                            <use xlink:href="#gF35979E6AC48C325CA4166BED145A530" x="0" y="0" fill="#000000" fill-rule="nonzero"/>
                                        </g>
                                        <g class="typst-text" transform="matrix(1 0 0 -1 4 5.464)">
                                            <use xlink:href="#g382FD0E72EF4769A82A5120666FF09ED" x="0" y="0" fill="#000000" fill-rule="nonzero"/>
                                        </g>
                                    </g>
                                </g>
                            </g>
                        </g>
                        <path class="typst-shape" fill="none" transform="matrix(1 0 0 1 63.63966929133856 25.93635264341956)" d="M 0 0m 0 28.125 l 0.0000000000000125883555 -28.125 h 6.012 v 28.125 h -6.012 Z "/>
                        <g class="typst-group">
                            <g>
                                <g class="typst-group" transform="matrix(0.00000000000000006123233995736766 -1 1 0.00000000000000006123233995736766 63.63966929133858 54.061352643419575)">
                                    <g>
                                        <g class="typst-text" transform="matrix(1 0 0 -1 0 5.922000000000001)">
                                            <use xlink:href="#gA5626BAA4730CE828598EC3EB1222894" x="0" y="0" fill="#000000" fill-rule="nonzero"/>
                                            <use xlink:href="#g3B63C1D085B203AE10B5BD9D213CEF83" x="4.365" y="0" fill="#000000" fill-rule="nonzero"/>
                                            <use xlink:href="#gF2FC65B7E3D14A7D6247D8AEEBF330D0" x="8.388" y="0" fill="#000000" fill-rule="nonzero"/>
                                            <use xlink:href="#gA5626BAA4730CE828598EC3EB1222894" x="13.482" y="0" fill="#000000" fill-rule="nonzero"/>
                                            <use xlink:href="#g2D615C0E6545681B01737447476EB751" x="17.847" y="0" fill="#000000" fill-rule="nonzero"/>
                                            <use xlink:href="#gCCB3B3FDCF8445EBB10A0074A51EEBC9" x="20.286" y="0" fill="#000000" fill-rule="nonzero"/>
                                            <use xlink:href="#g3B63C1D085B203AE10B5BD9D213CEF83" x="24.102" y="0" fill="#000000" fill-rule="nonzero"/>
                                        </g>
                                    </g>
                                </g>
                            </g>
                        </g>
                        <path class="typst-shape" fill="none" transform="matrix(1 0 0 1 93.79182240719908 84.0138547671541)" d="M 0 0m 0 7.645 v -7.645 h 7.26 v 7.645 h -7.26 Z "/>
                        <g class="typst-group">
                            <g>
                                <g class="typst-group" transform="matrix(0.00000000000000006123233995736766 -1 1 0.00000000000000006123233995736766 93.79182235995499 91.65885489313835)">
                                    <g>
                                        <g class="typst-text" transform="matrix(1 0 0 -1 0 7.238)">
                                            <use xlink:href="#gFE04E539483EE6775865397E1ABC3682" x="0" y="0" fill="#000000" fill-rule="nonzero"/>
                                        </g>
                                    </g>
                                </g>
                            </g>
                        </g>
                        <path class="typst-shape" fill="none" transform="matrix(1 0 0 1 107.29013511811023 84.6023547671541)" d="M 0 0m 0 6.468 v -6.468 h 7.26 v 6.468 h -7.26 Z "/>
                        <g class="typst-group">
                            <g>
                                <g class="typst-group" transform="matrix(0.00000000000000006123233995736766 -1 1 0.00000000000000006123233995736766 107.29013507086611 91.0703548143982)">
                                    <g>
                                        <g class="typst-text" transform="matrix(1 0 0 -1 0 7.238)">
                                            <use xlink:href="#g3E5CF1717035F9EBEDE0E8BF2281274E" x="0" y="0" fill="#000000" fill-rule="nonzero"/>
                                        </g>
                                    </g>
                                </g>
                            </g>
                        </g>
                        <path class="typst-shape" fill="none" transform="matrix(1 0 0 1 120.74444782902135 84.28335476715411)" d="M 0 0m 0 7.106 v -7.106 h 7.348 v 7.106 h -7.348 Z "/>
                        <g class="typst-group">
                            <g>
                                <g class="typst-group" transform="matrix(0.00000000000000006123233995736766 -1 1 0.00000000000000006123233995736766 120.74444770303711 91.38935478290215)">
                                    <g>
                                        <g class="typst-text" transform="matrix(1 0 0 -1 0 7.238)">
                                            <use xlink:href="#gBDE20167591FE0A4AE21444719F1F086" x="0" y="0" fill="#000000" fill-rule="nonzero"/>
                                        </g>
                                    </g>
                                </g>
                            </g>
                        </g>
                        <path class="typst-shape" fill="none" transform="matrix(1 0 0 1 134.2867605399325 83.9808547671541)" d="M 0 0m 0 7.711 v -7.711 h 7.26 v 7.711 h -7.26 Z "/>
                        <g class="typst-group">
                            <g>
                                <g class="typst-group" transform="matrix(0.00000000000000006123233995736766 -1 1 0.00000000000000006123233995736766 134.2867604926884 91.69185484589426)">
                                    <g>
                                        <g class="typst-text" transform="matrix(1 0 0 -1 0 7.238)">
                                            <use xlink:href="#g221FAE6788DB8C6A9B1A4ECC82D50CAF" x="0" y="0" fill="#000000" fill-rule="nonzero"/>
                                        </g>
                                    </g>
                                </g>
                            </g>
                        </g>
                        <path class="typst-shape" fill="#000000" fill-rule="nonzero" transform="matrix(1 0 0 1 95.5320584926884 199.47588191226097)" d="M 0 0v 3.7795277 h 17.27784 v -3.7795277 h -17.27784 Z "/>
                        <path class="typst-shape" fill="#000000" fill-rule="nonzero" transform="matrix(1 0 0 1 95.5320584926884 199.47588191226097)" d="M 0 0v 3.7795277 h 30.776154 v -3.7795277 h -30.776154 Z "/>
                        <path class="typst-shape" fill="#000000" fill-rule="nonzero" transform="matrix(1 0 0 1 95.5320584926884 199.47588191226097)" d="M 0 0v 3.7795277 h 44.274467 v -3.7795277 h -44.274467 Z "/>
                        <path class="typst-shape" fill="#000000" fill-rule="nonzero" transform="matrix(1 0 0 1 95.5320584926884 185.97756920134984)" d="M 0 0v 3.7795277 h 17.27784 v -3.7795277 h -17.27784 Z "/>
                        <path class="typst-shape" fill="#000000" fill-rule="nonzero" transform="matrix(1 0 0 1 95.5320584926884 185.97756920134984)" d="M 0 0v 3.7795277 h 30.776154 v -3.7795277 h -30.776154 Z "/>
                        <path class="typst-shape" fill="#cccccc" fill-rule="nonzero" transform="matrix(1 0 0 1 133.5973003374578 183.54787291338585)" d="M 0 0m 4.31946 0 c -2.3834088 0 -4.31946 1.9360511 -4.31946 4.31946 c 0 2.383409 1.9360511 4.31946 4.31946 4.31946 c 2.383409 0 4.31946 -1.9360509 4.31946 -4.31946 c 0 -2.3834088 -1.9360509 -4.31946 -4.31946 -4.31946 Z "/>
                        <path class="typst-shape" fill="#000000" fill-rule="nonzero" transform="matrix(1 0 0 1 95.5320584926884 185.97756920134984)" d="M 0 0v 3.7795277 h 30.776154 v -3.7795277 h -30.776154 Z "/>
                        <path class="typst-shape" fill="#cccccc" fill-rule="nonzero" transform="matrix(1 0 0 1 93.1023622047244 170.0495602024747)" d="M 0 0m 4.31946 0 c -2.3834088 0 -4.31946 1.9360511 -4.31946 4.31946 c 0 2.383409 1.9360511 4.31946 4.31946 4.31946 c 2.383409 0 4.31946 -1.9360509 4.31946 -4.31946 c 0 -2.3834088 -1.9360509 -4.31946 -4.31946 -4.31946 Z "/>
                        <path class="typst-shape" fill="#cccccc" fill-rule="nonzero" transform="matrix(1 0 0 1 120.09898762654666 170.0495602024747)" d="M 0 0m 4.31946 0 c -2.3834088 0 -4.31946 1.9360511 -4.31946 4.31946 c 0 2.383409 1.9360511 4.31946 4.31946 4.31946 c 2.383409 0 4.31946 -1.9360509 4.31946 -4.31946 c 0 -2.3834088 -1.9360509 -4.31946 -4.31946 -4.31946 Z "/>
                        <path class="typst-shape" fill="#cccccc" fill-rule="nonzero" transform="matrix(1 0 0 1 133.5973003374578 170.0495602024747)" d="M 0 0m 4.31946 0 c -2.3834088 0 -4.31946 1.9360511 -4.31946 4.31946 c 0 2.383409 1.9360511 4.31946 4.31946 4.31946 c 2.383409 0 4.31946 -1.9360509 4.31946 -4.31946 c 0 -2.3834088 -1.9360509 -4.31946 -4.31946 -4.31946 Z "/>
                        <path class="typst-shape" fill="#000000" fill-rule="nonzero" transform="matrix(1 0 0 1 95.5320584926884 158.98094377952756)" d="M 0 0v 3.7795277 h 17.27784 v -3.7795277 h -17.27784 Z "/>
                        <path class="typst-shape" fill="#cccccc" fill-rule="nonzero" transform="matrix(1 0 0 1 120.09898762654666 156.55124749156357)" d="M 0 0m 4.31946 0 c -2.3834088 0 -4.31946 1.9360511 -4.31946 4.31946 c 0 2.383409 1.9360511 4.31946 4.31946 4.31946 c 2.383409 0 4.31946 -1.9360509 4.31946 -4.31946 c 0 -2.3834088 -1.9360509 -4.31946 -4.31946 -4.31946 Z "/>
                        <path class="typst-shape" fill="#000000" fill-rule="nonzero" transform="matrix(1 0 0 1 95.5320584926884 158.98094377952756)" d="M 0 0v 3.7795277 h 17.27784 v -3.7795277 h -17.27784 Z "/>
                        <path class="typst-shape" fill="#cccccc" fill-rule="nonzero" transform="matrix(1 0 0 1 133.5973003374578 156.55124749156357)" d="M 0 0m 4.31946 0 c -2.3834088 0 -4.31946 1.9360511 -4.31946 4.31946 c 0 2.383409 1.9360511 4.31946 4.31946 4.31946 c 2.383409 0 4.31946 -1.9360509 4.31946 -4.31946 c 0 -2.3834088 -1.9360509 -4.31946 -4.31946 -4.31946 Z "/>
                        <path class="typst-shape" fill="#000000" fill-rule="nonzero" transform="matrix(1 0 0 1 95.5320584926884 158.98094377952756)" d="M 0 0v 3.7795277 h 17.27784 v -3.7795277 h -17.27784 Z "/>
                        <path class="typst-shape" fill="#cccccc" fill-rule="nonzero" transform="matrix(1 0 0 1 106.60067491563554 143.0529347806524)" d="M 0 0m 4.31946 0 c -2.3834088 0 -4.31946 1.9360511 -4.31946 4.31946 c 0 2.383409 1.9360511 4.31946 4.31946 4.31946 c 2.383409 0 4.31946 -1.9360509 4.31946 -4.31946 c 0 -2.3834088 -1.9360509 -4.31946 -4.31946 -4.31946 Z "/>
                        <path class="typst-shape" fill="#000000" fill-rule="nonzero" transform="matrix(1 0 0 1 95.5320584926884 145.4826310686164)" d="M 0 0v 3.7795277 h 30.776154 v -3.7795277 h -30.776154 Z "/>
                        <path class="typst-shape" fill="#cccccc" fill-rule="nonzero" transform="matrix(1 0 0 1 133.5973003374578 143.0529347806524)" d="M 0 0m 4.31946 0 c -2.3834088 0 -4.31946 1.9360511 -4.31946 4.31946 c 0 2.383409 1.9360511 4.31946 4.31946 4.31946 c 2.383409 0 4.31946 -1.9360509 4.31946 -4.31946 c 0 -2.3834088 -1.9360509 -4.31946 -4.31946 -4.31946 Z "/>
                        <path class="typst-shape" fill="#000000" fill-rule="nonzero" transform="matrix(1 0 0 1 95.5320584926884 145.4826310686164)" d="M 0 0v 3.7795277 h 30.776154 v -3.7795277 h -30.776154 Z "/>
                        <path class="typst-shape" fill="#cccccc" fill-rule="nonzero" transform="matrix(1 0 0 1 93.1023622047244 129.55462206974127)" d="M 0 0m 4.31946 0 c -2.3834088 0 -4.31946 1.9360511 -4.31946 4.31946 c 0 2.383409 1.9360511 4.31946 4.31946 4.31946 c 2.383409 0 4.31946 -1.9360509 4.31946 -4.31946 c 0 -2.3834088 -1.9360509 -4.31946 -4.31946 -4.31946 Z "/>
                        <path class="typst-shape" fill="#cccccc" fill-rule="nonzero" transform="matrix(1 0 0 1 106.60067491563554 129.55462206974127)" d="M 0 0m 4.31946 0 c -2.3834088 0 -4.31946 1.9360511 -4.31946 4.31946 c 0 2.383409 1.9360511 4.31946 4.31946 4.31946 c 2.383409 0 4.31946 -1.9360509 4.31946 -4.31946 c 0 -2.3834088 -1.9360509 -4.31946 -4.31946 -4.31946 Z "/>
                        <path class="typst-shape" fill="#cccccc" fill-rule="nonzero" transform="matrix(1 0 0 1 133.5973003374578 129.55462206974127)" d="M 0 0m 4.31946 0 c -2.3834088 0 -4.31946 1.9360511 -4.31946 4.31946 c 0 2.383409 1.9360511 4.31946 4.31946 4.31946 c 2.383409 0 4.31946 -1.9360509 4.31946 -4.31946 c 0 -2.3834088 -1.9360509 -4.31946 -4.31946 -4.31946 Z "/>
                        <path class="typst-shape" fill="#cccccc" fill-rule="nonzero" transform="matrix(1 0 0 1 106.60067491563554 116.05630935883015)" d="M 0 0m 4.31946 0 c -2.3834088 0 -4.31946 1.9360511 -4.31946 4.31946 c 0 2.383409 1.9360511 4.31946 4.31946 4.31946 c 2.383409 0 4.31946 -1.9360509 4.31946 -4.31946 c 0 -2.3834088 -1.9360509 -4.31946 -4.31946 -4.31946 Z "/>
                        <path class="typst-shape" fill="#cccccc" fill-rule="nonzero" transform="matrix(1 0 0 1 120.09898762654666 116.05630935883015)" d="M 0 0m 4.31946 0 c -2.3834088 0 -4.31946 1.9360511 -4.31946 4.31946 c 0 2.383409 1.9360511 4.31946 4.31946 4.31946 c 2.383409 0 4.31946 -1.9360509 4.31946 -4.31946 c 0 -2.3834088 -1.9360509 -4.31946 -4.31946 -4.31946 Z "/>
                        <path class="typst-shape" fill="#cccccc" fill-rule="nonzero" transform="matrix(1 0 0 1 133.5973003374578 116.05630935883015)" d="M 0 0m 4.31946 0 c -2.3834088 0 -4.31946 1.9360511 -4.31946 4.31946 c 0 2.383409 1.9360511 4.31946 4.31946 4.31946 c 2.383409 0 4.31946 -1.9360509 4.31946 -4.31946 c 0 -2.3834088 -1.9360509 -4.31946 -4.31946 -4.31946 Z "/>
                        <path class="typst-shape" fill="#cccccc" fill-rule="nonzero" transform="matrix(1 0 0 1 93.1023622047244 102.55799664791901)" d="M 0 0m 4.31946 0 c -2.3834088 0 -4.31946 1.9360511 -4.31946 4.31946 c 0 2.383409 1.9360511 4.31946 4.31946 4.31946 c 2.383409 0 4.31946 -1.9360509 4.31946 -4.31946 c 0 -2.3834088 -1.9360509 -4.31946 -4.31946 -4.31946 Z "/>
                        <path class="typst-shape" fill="#cccccc" fill-rule="nonzero" transform="matrix(1 0 0 1 106.60067491563554 102.55799664791901)" d="M 0 0m 4.31946 0 c -2.3834088 0 -4.31946 1.9360511 -4.31946 4.31946 c 0 2.383409 1.9360511 4.31946 4.31946 4.31946 c 2.383409 0 4.31946 -1.9360509 4.31946 -4.31946 c 0 -2.3834088 -1.9360509 -4.31946 -4.31946 -4.31946 Z "/>
                        <path class="typst-shape" fill="#cccccc" fill-rule="nonzero" transform="matrix(1 0 0 1 120.09898762654666 102.55799664791901)" d="M 0 0m 4.31946 0 c -2.3834088 0 -4.31946 1.9360511 -4.31946 4.31946 c 0 2.383409 1.9360511 4.31946 4.31946 4.31946 c 2.383409 0 4.31946 -1.9360509 4.31946 -4.31946 c 0 -2.3834088 -1.9360509 -4.31946 -4.31946 -4.31946 Z "/>
                        <path class="typst-shape" fill="#000000" fill-rule="nonzero" transform="matrix(1 0 0 1 93.1023622047244 197.04618562429695)" d="M 0 0m 4.31946 0 c -2.3834088 0 -4.31946 1.9360511 -4.31946 4.31946 c 0 2.383409 1.9360511 4.31946 4.31946 4.31946 c 2.383409 0 4.31946 -1.9360509 4.31946 -4.31946 c 0 -2.3834088 -1.9360509 -4.31946 -4.31946 -4.31946 Z "/>
                        <path class="typst-shape" fill="#000000" fill-rule="nonzero" transform="matrix(1 0 0 1 106.60067491563554 197.04618562429695)" d="M 0 0m 4.31946 0 c -2.3834088 0 -4.31946 1.9360511 -4.31946 4.31946 c 0 2.383409 1.9360511 4.31946 4.31946 4.31946 c 2.383409 0 4.31946 -1.9360509 4.31946 -4.31946 c 0 -2.3834088 -1.9360509 -4.31946 -4.31946 -4.31946 Z "/>
                        <path class="typst-shape" fill="#000000" fill-rule="nonzero" transform="matrix(1 0 0 1 120.09898762654666 197.04618562429695)" d="M 0 0m 4.31946 0 c -2.3834088 0 -4.31946 1.9360511 -4.31946 4.31946 c 0 2.383409 1.9360511 4.31946 4.31946 4.31946 c 2.383409 0 4.31946 -1.9360509 4.31946 -4.31946 c 0 -2.3834088 -1.9360509 -4.31946 -4.31946 -4.31946 Z "/>
                        <path class="typst-shape" fill="#000000" fill-rule="nonzero" transform="matrix(1 0 0 1 133.5973003374578 197.04618562429695)" d="M 0 0m 4.31946 0 c -2.3834088 0 -4.31946 1.9360511 -4.31946 4.31946 c 0 2.383409 1.9360511 4.31946 4.31946 4.31946 c 2.383409 0 4.31946 -1.9360509 4.31946 -4.31946 c 0 -2.3834088 -1.9360509 -4.31946 -4.31946 -4.31946 Z "/>
                        <path class="typst-shape" fill="#000000" fill-rule="nonzero" transform="matrix(1 0 0 1 93.1023622047244 183.54787291338585)" d="M 0 0m 4.31946 0 c -2.3834088 0 -4.31946 1.9360511 -4.31946 4.31946 c 0 2.383409 1.9360511 4.31946 4.31946 4.31946 c 2.383409 0 4.31946 -1.9360509 4.31946 -4.31946 c 0 -2.3834088 -1.9360509 -4.31946 -4.31946 -4.31946 Z "/>
                        <path class="typst-shape" fill="#000000" fill-rule="nonzero" transform="matrix(1 0 0 1 106.60067491563554 183.54787291338585)" d="M 0 0m 4.31946 0 c -2.3834088 0 -4.31946 1.9360511 -4.31946 4.31946 c 0 2.383409 1.9360511 4.31946 4.31946 4.31946 c 2.383409 0 4.31946 -1.9360509 4.31946 -4.31946 c 0 -2.3834088 -1.9360509 -4.31946 -4.31946 -4.31946 Z "/>
                        <path class="typst-shape" fill="#000000" fill-rule="nonzero" transform="matrix(1 0 0 1 120.09898762654666 183.54787291338585)" d="M 0 0m 4.31946 0 c -2.3834088 0 -4.31946 1.9360511 -4.31946 4.31946 c 0 2.383409 1.9360511 4.31946 4.31946 4.31946 c 2.383409 0 4.31946 -1.9360509 4.31946 -4.31946 c 0 -2.3834088 -1.9360509 -4.31946 -4.31946 -4.31946 Z "/>
                        <path class="typst-shape" fill="#000000" fill-rule="nonzero" transform="matrix(1 0 0 1 106.60067491563554 170.0495602024747)" d="M 0 0m 4.31946 0 c -2.3834088 0 -4.31946 1.9360511 -4.31946 4.31946 c 0 2.383409 1.9360511 4.31946 4.31946 4.31946 c 2.383409 0 4.31946 -1.9360509 4.31946 -4.31946 c 0 -2.3834088 -1.9360509 -4.31946 -4.31946 -4.31946 Z "/>
                        <path class="typst-shape" fill="#000000" fill-rule="nonzero" transform="matrix(1 0 0 1 93.1023622047244 156.55124749156357)" d="M 0 0m 4.31946 0 c -2.3834088 0 -4.31946 1.9360511 -4.31946 4.31946 c 0 2.383409 1.9360511 4.31946 4.31946 4.31946 c 2.383409 0 4.31946 -1.9360509 4.31946 -4.31946 c 0 -2.3834088 -1.9360509 -4.31946 -4.31946 -4.31946 Z "/>
                        <path class="typst-shape" fill="#000000" fill-rule="nonzero" transform="matrix(1 0 0 1 106.60067491563554 156.55124749156357)" d="M 0 0m 4.31946 0 c -2.3834088 0 -4.31946 1.9360511 -4.31946 4.31946 c 0 2.383409 1.9360511 4.31946 4.31946 4.31946 c 2.383409 0 4.31946 -1.9360509 4.31946 -4.31946 c 0 -2.3834088 -1.9360509 -4.31946 -4.31946 -4.31946 Z "/>
                        <path class="typst-shape" fill="#000000" fill-rule="nonzero" transform="matrix(1 0 0 1 93.1023622047244 143.0529347806524)" d="M 0 0m 4.31946 0 c -2.3834088 0 -4.31946 1.9360511 -4.31946 4.31946 c 0 2.383409 1.9360511 4.31946 4.31946 4.31946 c 2.383409 0 4.31946 -1.9360509 4.31946 -4.31946 c 0 -2.3834088 -1.9360509 -4.31946 -4.31946 -4.31946 Z "/>
                        <path class="typst-shape" fill="#000000" fill-rule="nonzero" transform="matrix(1 0 0 1 120.09898762654666 143.0529347806524)" d="M 0 0m 4.31946 0 c -2.3834088 0 -4.31946 1.9360511 -4.31946 4.31946 c 0 2.383409 1.9360511 4.31946 4.31946 4.31946 c 2.383409 0 4.31946 -1.9360509 4.31946 -4.31946 c 0 -2.3834088 -1.9360509 -4.31946 -4.31946 -4.31946 Z "/>
                        <path class="typst-shape" fill="#000000" fill-rule="nonzero" transform="matrix(1 0 0 1 120.09898762654666 129.55462206974127)" d="M 0 0m 4.31946 0 c -2.3834088 0 -4.31946 1.9360511 -4.31946 4.31946 c 0 2.383409 1.9360511 4.31946 4.31946 4.31946 c 2.383409 0 4.31946 -1.9360509 4.31946 -4.31946 c 0 -2.3834088 -1.9360509 -4.31946 -4.31946 -4.31946 Z "/>
                        <path class="typst-shape" fill="#000000" fill-rule="nonzero" transform="matrix(1 0 0 1 93.1023622047244 116.05630935883015)" d="M 0 0m 4.31946 0 c -2.3834088 0 -4.31946 1.9360511 -4.31946 4.31946 c 0 2.383409 1.9360511 4.31946 4.31946 4.31946 c 2.383409 0 4.31946 -1.9360509 4.31946 -4.31946 c 0 -2.3834088 -1.9360509 -4.31946 -4.31946 -4.31946 Z "/>
                        <path class="typst-shape" fill="#000000" fill-rule="nonzero" transform="matrix(1 0 0 1 133.5973003374578 102.55799664791901)" d="M 0 0m 4.31946 0 c -2.3834088 0 -4.31946 1.9360511 -4.31946 4.31946 c 0 2.383409 1.9360511 4.31946 4.31946 4.31946 c 2.383409 0 4.31946 -1.9360509 4.31946 -4.31946 c 0 -2.3834088 -1.9360509 -4.31946 -4.31946 -4.31946 Z "/>
                    </g>
                </g>
                <g class="typst-group" transform="matrix(1 0 0 1 0 250.46315300337457)">
                    <g>
                        <g class="typst-text" transform="matrix(1 0 0 -1 0 7.238)">
                            <use xlink:href="#g56F09EF856CD1489BBBA7D138BEA8F5" x="0" y="0" fill="#000000" fill-rule="nonzero"/>
                            <use xlink:href="#g80723B9C0A918C3A8709DE0BC252F54C" x="5.335" y="0" fill="#000000" fill-rule="nonzero"/>
                            <use xlink:href="#gC1A56354AB16CA354F140BD2C6EDE55" x="8.316" y="0" fill="#000000" fill-rule="nonzero"/>
                            <use xlink:href="#gE8B08BB0E494C01E08CB3EE0FE93D76A" x="13.816" y="0" fill="#000000" fill-rule="nonzero"/>
                            <use xlink:href="#g19B373248AE229D68CE91FF3267DF00C" x="19.657" y="0" fill="#000000" fill-rule="nonzero"/>
                            <use xlink:href="#g7C0E51A326CA50E628618661BD88BB6" x="23.661" y="0" fill="#000000" fill-rule="nonzero"/>
                            <use xlink:href="#gC2D7A11741CCA66FA9AA4DE12A386E50" x="31.328000000000003" y="0" fill="#000000" fill-rule="nonzero"/>
                            <use xlink:href="#g3E8771E64A7D1F5C477B469F3BD83CDC" x="36.443000000000005" y="0" fill="#000000" fill-rule="nonzero"/>
                            <use xlink:href="#gEBA513237BF58DF10F81DE40D9BAA4B8" x="41.789" y="0" fill="#000000" fill-rule="nonzero"/>
                            <use xlink:href="#g75777525027B055A94D69C6C1694F54F" x="49.06" y="0" fill="#000000" fill-rule="nonzero"/>
                            <use xlink:href="#g33ECB15847DF2055C7626C9EE174CAC9" x="54.769000000000005" y="0" fill="#000000" fill-rule="nonzero"/>
                            <use xlink:href="#g7C0E51A326CA50E628618661BD88BB6" x="60.104000000000006" y="0" fill="#000000" fill-rule="nonzero"/>
                            <use xlink:href="#g1770AF8213C346623FB4E95C8CFC5D3B" x="65.021" y="0" fill="#000000" fill-rule="nonzero"/>
                            <use xlink:href="#g9ADB02DC177E6143ECAB98EC27EF1649" x="71.247" y="0" fill="#000000" fill-rule="nonzero"/>
                            <use xlink:href="#gE83CC290A28C70F2E8CCC73BC7E8163D" x="77.33" y="0" fill="#000000" fill-rule="nonzero"/>
                            <use xlink:href="#g9CFD982A7EF6925B03559430420E463D" x="80.234" y="0" fill="#000000" fill-rule="nonzero"/>
                            <use xlink:href="#g1770AF8213C346623FB4E95C8CFC5D3B" x="85.77799999999999" y="0" fill="#000000" fill-rule="nonzero"/>
                            <use xlink:href="#g9CFD982A7EF6925B03559430420E463D" x="92.00399999999999" y="0" fill="#000000" fill-rule="nonzero"/>
                            <use xlink:href="#g4B89028CF664E1EF1FA3FD8F990833CC" x="97.54799999999999" y="0" fill="#000000" fill-rule="nonzero"/>
                            <use xlink:href="#gB87802A013B5AD7F65035FBB59450BA0" x="103.70799999999998" y="0" fill="#000000" fill-rule="nonzero"/>
                            <use xlink:href="#g3ED00D6A7DD9347C2CB04B47C8DDD09B" x="106.97499999999998" y="0" fill="#000000" fill-rule="nonzero"/>
                            <use xlink:href="#g1770AF8213C346623FB4E95C8CFC5D3B" x="112.93699999999998" y="0" fill="#000000" fill-rule="nonzero"/>
                            <use xlink:href="#g7C0E51A326CA50E628618661BD88BB6" x="116.41299999999998" y="0" fill="#000000" fill-rule="nonzero"/>
                            <use xlink:href="#g19B373248AE229D68CE91FF3267DF00C" x="121.32999999999998" y="0" fill="#000000" fill-rule="nonzero"/>
                            <use xlink:href="#g9533FE3887B531C38C1C4562CDFC4009" x="125.42199999999998" y="0" fill="#000000" fill-rule="nonzero"/>
                            <use xlink:href="#g7C0E51A326CA50E628618661BD88BB6" x="129.712" y="0" fill="#000000" fill-rule="nonzero"/>
                            <use xlink:href="#gF8C4C2589F8AD3A43083267D7D7CF860" x="134.706" y="0" fill="#000000" fill-rule="nonzero"/>
                            <use xlink:href="#g1770AF8213C346623FB4E95C8CFC5D3B" x="139.414" y="0" fill="#000000" fill-rule="nonzero"/>
                            <use xlink:href="#g80723B9C0A918C3A8709DE0BC252F54C" x="142.89" y="0" fill="#000000" fill-rule="nonzero"/>
                            <use xlink:href="#g9CFD982A7EF6925B03559430420E463D" x="145.87099999999998" y="0" fill="#000000" fill-rule="nonzero"/>
                            <use xlink:href="#g3ED00D6A7DD9347C2CB04B47C8DDD09B" x="151.415" y="0" fill="#000000" fill-rule="nonzero"/>
                            <use xlink:href="#g9533FE3887B531C38C1C4562CDFC4009" x="157.37699999999998" y="0" fill="#000000" fill-rule="nonzero"/>
                            <use xlink:href="#g3E5CF1717035F9EBEDE0E8BF2281274E" x="164.41699999999997" y="0" fill="#000000" fill-rule="nonzero"/>
                            <use xlink:href="#g7C0E51A326CA50E628618661BD88BB6" x="170.88499999999996" y="0" fill="#000000" fill-rule="nonzero"/>
                            <use xlink:href="#g1770AF8213C346623FB4E95C8CFC5D3B" x="175.80199999999996" y="0" fill="#000000" fill-rule="nonzero"/>
                            <use xlink:href="#g6ACFF760A35DA6D4BC5F52E32B96F2BE" x="179.27799999999996" y="0" fill="#000000" fill-rule="nonzero"/>
                            <use xlink:href="#g7C0E51A326CA50E628618661BD88BB6" x="187.40699999999995" y="0" fill="#000000" fill-rule="nonzero"/>
                            <use xlink:href="#g7C0E51A326CA50E628618661BD88BB6" x="192.40099999999995" y="0" fill="#000000" fill-rule="nonzero"/>
                            <use xlink:href="#g3ED00D6A7DD9347C2CB04B47C8DDD09B" x="197.31799999999996" y="0" fill="#000000" fill-rule="nonzero"/>
                            <use xlink:href="#g28FC739CA38E4C939D0A102E2DDA5D5F" x="206.02999999999994" y="0" fill="#000000" fill-rule="nonzero"/>
                            <use xlink:href="#g33ECB15847DF2055C7626C9EE174CAC9" x="213.89499999999995" y="0" fill="#000000" fill-rule="nonzero"/>
                            <use xlink:href="#g7C0E51A326CA50E628618661BD88BB6" x="219.22999999999996" y="0" fill="#000000" fill-rule="nonzero"/>
                            <use xlink:href="#g1770AF8213C346623FB4E95C8CFC5D3B" x="224.14699999999996" y="0" fill="#000000" fill-rule="nonzero"/>
                            <use xlink:href="#g9533FE3887B531C38C1C4562CDFC4009" x="227.62299999999996" y="0" fill="#000000" fill-rule="nonzero"/>
                        </g>
                    </g>
                </g>
            </g>
        </g>
    </g>
    <defs id="glyph">
        <symbol id="g382FD0E72EF4769A82A5120666FF09ED" overflow="visible">
            <path d="M 0 0m 1.9920001 -0.17600001 c 1.128 0 1.688 0.91200006 1.688 2.7360003 c 0 1.224 -0.2559998 2.0400002 -0.76 2.4399998 c -0.27999997 0.21600008 -0.592 0.32800007 -0.9200001 0.32800007 c -1.128 0 -1.688 -0.9200001 -1.688 -2.768 c 0 -1.4720001 0.39200005 -2.7360003 1.6800001 -2.7360003 Z m 0.89600015 4.3680005 c 0.055999994 -0.2800002 0.07999992 -0.7920003 0.07999992 -1.5360003 c 0 -0.73600006 -0.032000065 -1.2800001 -0.08800006 -1.6320001 c -0.10400009 -0.64000005 -0.4000001 -0.96000004 -0.888 -0.96000004 c -0.18400002 0 -0.36800003 0.072000004 -0.536 0.208 c -0.21600008 0.18400002 -0.34399998 0.56 -0.4000001 1.1360002 c -0.02399993 0.19999993 -0.031999946 0.61600006 -0.031999946 1.248 c 0 0.6960001 0.024000049 1.184 0.06400001 1.448 c 0.07200003 0.44000006 0.21599996 0.72000027 0.44000006 0.84000015 c 0.176 0.096000195 0.32799995 0.14400005 0.464 0.14400005 c 0.52 0 0.8080001 -0.42400026 0.89600015 -0.8959999 Z "/>
        </symbol>
        <symbol id="g744AD155D1F0EDF9ADE75970A60A1F" overflow="visible">
            <path d="M 0 0m 0.94400007 2.5200002 c 0.03999996 0 0.088 0.031999826 0.12799996 0.08799982 c 0.24000001 0.36000013 0.5680001 0.536 0.98399997 0.536 c 0.2800002 0 0.49600005 -0.15999985 0.6400001 -0.48799992 c 0.08800006 -0.21600008 0.13599992 -0.54400015 0.13599992 -0.9840001 c 0 -0.50399995 -0.06399989 -0.856 -0.18399978 -1.064 c -0.20000005 -0.32800004 -0.47200012 -0.49600005 -0.8160001 -0.49600005 c -0.53600013 0 -0.9600001 0.384 -1.1040001 0.8000001 c 0.023999989 -0.008000016 0.03999996 0 0.07199997 0 c 0.24000007 0 0.44 0.18400002 0.44 0.42400002 c 0 0.24800003 -0.19999993 0.416 -0.44 0.416 c -0.27999997 0 -0.4 -0.15200007 -0.4 -0.44800007 c 0 -0.8 0.6480001 -1.48 1.4480001 -1.48 c 0.48800015 0 0.90400004 0.17600001 1.24 0.52800006 c 0.3360002 0.35200003 0.5040002 0.776 0.5040002 1.264 c 0 0.4640001 -0.13600016 0.86399996 -0.408 1.2080001 c -0.296 0.37599993 -0.66400003 0.55999994 -1.1120002 0.55999994 c -0.37599993 0 -0.704 -0.119999886 -0.96799994 -0.3599999 v 1.4240003 c 0.21599996 -0.06400013 0.42400002 -0.096000195 0.64 -0.096000195 c 0.3679999 0 0.6880001 0.08799982 0.96000016 0.27199984 c 0.2479999 0.15199995 0.4159999 0.30400038 0.51199985 0.44799995 c 0.048000097 0.06400013 0.07200003 0.11199999 0.07200003 0.13600016 c 0 0.07999992 -0.03999996 0.119999886 -0.119999886 0.119999886 c -0.44000006 -0.16799974 -0.8160002 -0.25600004 -1.1200001 -0.25600004 c -0.36 0 -0.704 0.07200003 -1.0320001 0.22400045 c -0.03999996 0.015999794 -0.07199997 0.023999691 -0.10399997 0.023999691 c -0.07200003 0 -0.11200005 -0.07200003 -0.11200005 -0.22399998 v -2.336 c 0 -0.16800022 0 -0.24000001 0.14400005 -0.24000001 Z "/>
        </symbol>
        <symbol id="g5C5E020B11E944F01C3D21BECA4A96D6" overflow="visible">
            <path d="M 0 0m 2.1520002 5.328 c -0.32800007 -0.33599997 -0.8080001 -0.5039997 -1.4400002 -0.5039997 v -0.31200027 c 0.416 0 0.7600001 0.06400013 1.024 0.19199991 v -4.048 c 0 -0.144 -0.031999946 -0.24000001 -0.10399997 -0.28 c -0.07200003 -0.03999999 -0.27200007 -0.06400001 -0.592 -0.06400001 h -0.28000003 v -0.312 c 0.19999999 0.016 0.632 0.024 1.296 0.024 c 0.66400003 0 1.0960002 -0.007999999 1.2960002 -0.024 v 0.312 h -0.2800002 c -0.32799983 0 -0.5279999 0.024000019 -0.592 0.06400001 c -0.06399989 0.03999999 -0.10399985 0.136 -0.10399985 0.28 v 4.432 c 0 0.19199991 -0.016000032 0.23999977 -0.22399998 0.23999977 Z "/>
        </symbol>
        <symbol id="gDCA99CF9BF5D585A2BF7D4E3E2A8026C" overflow="visible">
            <path d="M 0 0m 1.719 1.0979999 v 3.6089997 c 0 0.7470002 0.153 0.7919998 0.7829999 0.81899977 c 0.05400014 0.054000378 0.05400014 0.24300003 0 0.2970004 c -0.3959999 -0.009000301 -0.8189999 -0.018000126 -1.17 -0.018000126 c -0.29699993 0 -0.7379999 0.0089998245 -1.1609999 0.018000126 c -0.05399999 -0.054000378 -0.05399999 -0.24300003 0 -0.2970004 c 0.62999994 -0.02699995 0.78299993 -0.07199955 0.78299993 -0.81899977 v -3.6089997 c 0 -0.747 -0.153 -0.79199994 -0.78299993 -0.81899995 c -0.05399999 -0.05399999 -0.05399999 -0.24299999 0 -0.297 c 0.40499997 0.009 0.84599996 0.018 1.17 0.018 c 0.324 0 0.7559999 -0.009 1.1609999 -0.018 c 0.05400014 0.053999998 0.05400014 0.243 0 0.297 c -0.6299999 0.02700001 -0.7829999 0.072 -0.7829999 0.81899995 Z "/>
        </symbol>
        <symbol id="g50F9606A483E1FAAA9EE477597D96533" overflow="visible">
            <path d="M 0 0m 1.6559999 3.222 c -0.05400002 -0.062999964 -0.10799992 -0.08100009 -0.10799992 0 c -0.009000063 0.24300003 -0.02700007 0.59399986 -0.07200003 0.684 c -0.018000007 0.044999838 -0.036000013 0.07200003 -0.10800004 0.07200003 c -0.25199997 -0.09899998 -0.48599994 -0.18000007 -1.1069999 -0.26100016 c -0.017999992 -0.0539999 0 -0.19799995 0.018000007 -0.25199986 c 0.486 -0.045000076 0.585 -0.09000015 0.585 -0.612 v -1.755 c 0 -0.7379999 -0.089999974 -0.7739999 -0.63 -0.81899995 c -0.054000005 -0.05399999 -0.054000005 -0.24299999 0 -0.297 c 0.26999995 0.009 0.63 0.018 0.99 0.018 c 0.3599999 0 0.63 -0.009 0.89999986 -0.018 c 0.05400014 0.053999998 0.05400014 0.243 0 0.297 c -0.45899987 0.045000017 -0.5489999 0.081 -0.5489999 0.81899995 v 1.476 c 0 0.18899989 0.08099997 0.29699993 0.153 0.37800002 c 0.342 0.33299994 0.747 0.5309999 1.098 0.5309999 c 0.17999983 0 0.36899996 -0.116999865 0.477 -0.32399988 c 0.089999914 -0.18000007 0.1079998 -0.4230001 0.1079998 -0.6930001 v -1.3679999 c 0 -0.7379999 -0.089999914 -0.7739999 -0.55799985 -0.81899995 c -0.045000076 -0.05399999 -0.045000076 -0.24299999 0 -0.297 c 0.26999998 0.009 0.55799985 0.018 0.918 0.018 c 0.36000013 0 0.684 -0.009 0.954 -0.018 c 0.045000076 0.053999998 0.045000076 0.243 0 0.297 c -0.5040002 0.045000017 -0.60300016 0.081 -0.60300016 0.81899995 v 1.341 c 0 0.4949999 -0.035999775 0.92700005 -0.24299979 1.2059999 c -0.15300012 0.1980002 -0.43200016 0.306 -0.747 0.306 c -0.44099998 0 -0.9450002 -0.116999865 -1.4760001 -0.72899985 Z "/>
        </symbol>
        <symbol id="gF2FC65B7E3D14A7D6247D8AEEBF330D0" overflow="visible">
            <path d="M 0 0m 0.387 3.8609998 c -0.12600002 0 -0.162 -0.10800004 -0.162 -0.18000007 v -0.116999865 c 0 -0.045000076 0.009000003 -0.05400014 0.044999987 -0.05400014 h 0.53099996 v -2.7089999 c 0 -0.63899994 0.27899998 -0.8909999 0.693 -0.8909999 c 0.41399992 0 0.86399984 0.19799998 1.2149999 0.5939999 c -0.017999887 0.09000003 -0.07200003 0.14400005 -0.16199994 0.153 c -0.23399997 -0.17999998 -0.50399995 -0.25199997 -0.73800004 -0.25199997 c -0.24299991 0 -0.29699993 0.26999998 -0.29699993 0.82799995 v 2.277 h 0.936 c 0.089999914 0 0.21599984 0.036000013 0.21599984 0.1170001 v 0.18000007 c 0 0.036000013 -0.02699995 0.0539999 -0.07199979 0.0539999 h -1.08 v 0.35100007 c 0 0.58500004 0.036000013 0.9449997 0.036000013 0.9449997 c 0 0.054000378 -0.02700007 0.08100033 -0.07200003 0.08100033 c -0.036000013 0 -0.116999984 -0.03600025 -0.19799995 -0.08100033 c -0.0990001 -0.0539999 -0.18900001 -0.09899998 -0.30600005 -0.12599993 c -0.10799998 -0.035999775 -0.19799995 -0.062999725 -0.19799995 -0.12599993 c 0 -0.1079998 0.02699995 -0.045000076 0.02699995 -1.0439999 Z "/>
        </symbol>
        <symbol id="g3B63C1D085B203AE10B5BD9D213CEF83" overflow="visible">
            <path d="M 0 0m 3.4739997 0.83699995 c -0.33299994 -0.34199998 -0.59399986 -0.48599997 -1.1159999 -0.48599997 c -0.32399988 0 -0.7019999 0.18899998 -0.9809998 0.648 c -0.18000007 0.29700005 -0.288 0.71099997 -0.288 1.2329999 l 2.3939998 -0.017999887 c 0.10800004 0 0.171 0.0539999 0.171 0.15299988 c 0 0.75600004 -0.26999998 1.566 -1.5209999 1.566 c -0.783 0 -1.8 -0.747 -1.8 -2.1149998 c 0 -0.50400007 0.12600002 -0.99 0.423 -1.332 c 0.30599993 -0.35999998 0.7289999 -0.576 1.3769999 -0.576 c 0.684 0 1.1700001 0.315 1.53 0.78299993 c -0.02699995 0.09000003 -0.08100009 0.13499999 -0.18900013 0.144 Z m -2.3579998 1.701 c 0.171 1.017 0.801 1.098 1.017 1.098 c 0.342 0 0.747 -0.18900013 0.747 -0.94499993 c 0 -0.08100009 -0.036000013 -0.12600017 -0.13499999 -0.12600017 Z "/>
        </symbol>
        <symbol id="g4DD300AF3E1EA061A36A3EC05A80C3D8" overflow="visible">
            <path d="M 0 0m 1.5839999 3.222 c -0.017999887 0.3599999 -0.02699995 0.59399986 -0.07199991 0.684 c -0.018000007 0.044999838 -0.036000013 0.07200003 -0.10800004 0.07200003 c -0.25199997 -0.09899998 -0.48599994 -0.18000007 -1.1069999 -0.26100016 c -0.018000007 -0.0539999 0 -0.19799995 0.018000007 -0.25199986 c 0.48599994 -0.045000076 0.585 -0.09000015 0.585 -0.612 v -1.755 c 0 -0.747 -0.10800004 -0.78299993 -0.666 -0.81899995 c -0.054000005 -0.05399999 -0.054000005 -0.24299999 0 -0.297 c 0.31499997 0.009 0.666 0.018 1.026 0.018 c 0.3599999 0 0.7739999 -0.009 1.089 -0.018 c 0.0539999 0.053999998 0.0539999 0.243 0 0.297 c -0.63 0.045000017 -0.73800004 0.072 -0.73800004 0.81899995 v 1.251 c 0 0.23399997 0.10800004 0.44099998 0.21599996 0.6029999 c 0.09899998 0.14400005 0.306 0.44099998 0.41400003 0.44099998 c 0.08099985 0 0.16199994 -0.018000126 0.23399997 -0.1170001 c 0.062999964 -0.089999914 0.171 -0.20700002 0.32399988 -0.20700002 c 0.21600008 0 0.4230001 0.22500014 0.4230001 0.45000005 c 0 0.171 -0.16199994 0.43199992 -0.53999996 0.43199992 c -0.4230001 0 -0.79200006 -0.3959999 -0.99899995 -0.747 c -0.05400002 -0.09899998 -0.0990001 -0.02699995 -0.0990001 0.018000126 Z "/>
        </symbol>
        <symbol id="g50446FB891D926F440957AD50C0B02BD" overflow="visible">
            <path d="M 0 0m 0.43199998 1.242 c 0.036000013 -0.44100004 0.06299999 -0.86399996 0.06299999 -1.242 c 0.09 0.018 0.17999998 0.026999999 0.225 0.026999999 c 0.06300002 0 0.116999984 0 0.18 -0.018 c 0.24300003 -0.06299999 0.48599994 -0.09899999 0.819 -0.09899999 c 0.5039998 0 1.4309999 0.243 1.4309999 1.134 c 0 0.612 -0.44099998 0.9719999 -1.053 1.197 c -0.53999996 0.20700002 -0.9 0.342 -0.9 0.8369999 c 0 0.36899996 0.324 0.576 0.63 0.576 c 0.19799995 0 0.72 -0.07200003 0.8369999 -0.8369999 c 0.05400014 -0.05400014 0.23399997 -0.045000076 0.2880001 0.009000063 c 0.02699995 0.32399988 0.045000076 0.6569998 0.0539999 0.95399976 c -0.2789998 0.045000076 -0.71099997 0.171 -1.1789999 0.171 c -0.666 0 -1.2689999 -0.43199992 -1.2689999 -1.0079999 c 0 -0.6569998 0.297 -0.9359999 0.99 -1.2239999 c 0.74699986 -0.306 0.91799986 -0.495 0.91799986 -0.882 c 0 -0.44099998 -0.43199992 -0.63 -0.76499987 -0.63 c -0.35100007 0 -0.549 0.11700001 -0.63900006 0.21599999 c -0.19799995 0.20700002 -0.29699993 0.6029999 -0.35099995 0.82799995 c -0.05400002 0.05400002 -0.225 0.045000076 -0.27899998 -0.008999944 Z "/>
        </symbol>
        <symbol id="gABD003B53FE1CABCB379D85933D0897" overflow="visible">
            <path d="M 0 0m 3.5819998 0.81899995 c -0.036000013 0.08100003 -0.10800004 0.11700004 -0.18899989 0.12599999 c -0.306 -0.39599997 -0.6930001 -0.594 -1.0799999 -0.594 c -0.65700006 0 -1.206 0.666 -1.206 1.719 c 0 0.99 0.43199992 1.5839999 1.0259999 1.5839999 c 0.5309999 0 0.6029999 -0.31500006 0.63899994 -0.6299999 c 0.02699995 -0.24300003 0.15300012 -0.32400012 0.342 -0.32400012 c 0.18900013 0 0.44099998 0.1170001 0.44099998 0.39600015 c 0 0.4949999 -0.513 0.8549998 -1.3769999 0.8549998 c -0.89100003 0 -1.845 -0.8009999 -1.845 -2.0789998 c 0 -1.161 0.648 -1.962 1.7820001 -1.962 c 0.53999996 0 1.017 0.171 1.4669998 0.9089999 Z "/>
        </symbol>
        <symbol id="g2D615C0E6545681B01737447476EB751" overflow="visible">
            <path d="M 0 0m 1.629 1.0979999 v 1.791 c 0 0.4499998 0.036000013 1.0259998 0.036000013 1.0259998 c 0 0.036000013 -0.045000076 0.0630002 -0.116999984 0.0630002 c -0.25199997 -0.09899998 -0.612 -0.18000007 -1.233 -0.26100016 c -0.018000007 -0.0539999 0 -0.19799995 0.017999977 -0.25199986 c 0.49499997 -0.045000076 0.58500004 -0.09899998 0.58500004 -0.612 v -1.755 c 0 -0.747 -0.09900004 -0.7739999 -0.648 -0.81899995 c -0.05399999 -0.05399999 -0.05399999 -0.24299999 0 -0.297 c 0.297 0.009 0.648 0.018 1.008 0.018 c 0.3599999 0 0.7019999 -0.009 0.99899995 -0.018 c 0.0539999 0.053999998 0.0539999 0.243 0 0.297 c -0.549 0.036000013 -0.648 0.072 -0.648 0.81899995 Z m -0.819 4.2929997 c 0 -0.2340002 0.21599996 -0.46799994 0.43200004 -0.46799994 c 0.25199997 0 0.46799994 0.24300003 0.46799994 0.43199968 c 0 0.21600008 -0.18900001 0.4680004 -0.43199992 0.4680004 c -0.21600008 0 -0.46800005 -0.21600008 -0.46800005 -0.43200016 Z "/>
        </symbol>
        <symbol id="g9F3FE580E1A588B65030B2403613B197" overflow="visible">
            <path d="M 0 0m 0.369 1.8449999 c 0 -0.9179999 0.612 -1.935 1.8899999 -1.935 c 0.576 0 1.017 0.20699999 1.323 0.50399995 c 0.40499997 0.39599997 0.58500004 0.963 0.58500004 1.5119998 c 0 0.9360001 -0.513 2.0249999 -1.8899999 2.0249999 c -0.594 0 -1.08 -0.24299979 -1.413 -0.6299999 c -0.324 -0.38700008 -0.49499997 -0.9089999 -0.49499997 -1.476 Z m 1.773 1.791 c 0.7739999 0 1.2509999 -0.70200014 1.2509999 -1.998 c 0 -1.134 -0.58500004 -1.4129999 -1.0079999 -1.4129999 c -0.9360001 0 -1.242 1.134 -1.242 1.8269998 c 0 0.783 0.18899989 1.5840001 0.99899995 1.5840001 Z "/>
        </symbol>
        <symbol id="gA5626BAA4730CE828598EC3EB1222894" overflow="visible">
            <path d="M 0 0m 3.5549998 5.679 c -0.5220001 0.07200003 -0.50399995 0.24300003 -1.3859999 0.24300003 c -0.9089999 0 -1.7099999 -0.60300016 -1.7099999 -1.5570002 c 0 -0.94499993 0.783 -1.3769999 1.5749999 -1.6829998 c 0.53999996 -0.20700002 1.2059999 -0.4590001 1.2059999 -1.341 c 0 -0.729 -0.40499997 -1.107 -1.1249998 -1.107 c -0.837 0 -1.3770001 0.387 -1.575 1.278 c -0.116999984 0.036000013 -0.20699999 0.018000007 -0.297 -0.02700007 c 0.036 -0.69299996 0.07200001 -0.9269999 0.17999999 -1.3679999 c 0.567 0 0.819 -0.20699999 1.62 -0.20699999 c 0.40499997 0 0.7919998 0.09899999 1.1069999 0.297 c 0.5220001 0.32399997 0.84599996 0.8729999 0.84599996 1.4489999 c 0 0.954 -0.72 1.3769999 -1.458 1.6559999 c -0.53999996 0.19799995 -1.4399999 0.53999996 -1.4399999 1.296 c 0 0.5040002 0.459 1.0079999 0.9899999 1.0079999 c 0.87300014 0 1.152 -0.5580001 1.332 -1.152 c 0.09899998 -0.018000126 0.21600008 -0.0089998245 0.29699993 0.0539999 c -0.036000013 0.43200016 -0.07200003 0.684 -0.16199994 1.1610003 Z "/>
        </symbol>
        <symbol id="gCCB3B3FDCF8445EBB10A0074A51EEBC9" overflow="visible">
            <path d="M 0 0m 0.639 3.9509997 c -0.018000007 0 -0.05400002 -0.036000013 -0.05400002 -0.0539999 c -0.009000003 -0.40499997 -0.05400002 -0.72 -0.13499999 -1.161 c 0.08099997 -0.036000013 0.18900001 -0.0539999 0.297 -0.02699995 c 0.18 0.65700006 0.459 0.80999994 0.729 0.819 l 1.1519998 0.02699995 c -0.612 -1.026 -1.5119998 -2.322 -2.2139997 -3.2669997 c -0.081 -0.107999995 -0.081 -0.13499999 -0.081 -0.17999999 c 0 -0.06299999 0.072 -0.107999995 0.20699999 -0.107999995 l 2.8079998 -0.026999999 c 0.10800004 0.306 0.22500014 0.774 0.2880001 1.2239999 c -0.05400014 0.036000013 -0.16200018 0.05400002 -0.26999998 0.05400002 l -0.12600017 -0.26099998 c -0.2249999 -0.477 -0.4139998 -0.67499995 -0.88199997 -0.68399996 h -1.1969999 c 0.666 0.84599996 1.6019999 2.2589998 2.1599998 3.1769998 c 0.13499999 0.22500014 0.16199994 0.29699993 0.16199994 0.33299994 c 0 0.036000013 -0.044999838 0.0630002 -0.10800004 0.0630002 c -0.044999838 0 -0.29699993 -0.018000126 -0.55799985 -0.018000126 h -1.647 c -0.288 0 -0.39599997 0.045000076 -0.53099996 0.089999914 Z "/>
        </symbol>
        <symbol id="g2BF95CB904F6E48C03E4E067EAED4274" overflow="visible">
            <path d="M 0 0m 1.8960001 5.328 c -0.4080001 0 -0.7520001 -0.14400005 -1.0480001 -0.43199968 c -0.296 -0.2880001 -0.44800004 -0.6240001 -0.44800004 -1.0320003 c 0 -0.27199984 0.20000002 -0.47199988 0.44800004 -0.47199988 c 0.24000001 0 0.44000006 0.20799994 0.44000006 0.44799995 c 0 0.26399994 -0.19200003 0.44799995 -0.44800007 0.44799995 c -0.023999989 0 -0.04000002 0 -0.055999994 -0.007999897 c 0.15200001 0.3920002 0.50400007 0.73600006 1.008 0.73600006 c 0.65600014 0 1.0240002 -0.56799984 1.0240002 -1.256 c 0 -0.536 -0.27200007 -1.112 -0.8160002 -1.72 l -1.504 -1.6960002 c -0.104 -0.120000005 -0.096000016 -0.112 -0.096000016 -0.344 h 2.9680002 l 0.23199987 1.44 h -0.26399994 c -0.06400013 -0.408 -0.120000124 -0.64000005 -0.16799998 -0.712 c -0.03999996 -0.04000002 -0.27999997 -0.055999994 -0.72 -0.055999994 h -1.3360001 l 0.776 0.76 c 0.544 0.5120001 1.232 1.064 1.4640001 1.488 c 0.15999985 0.27999997 0.24000001 0.5600002 0.24000001 0.84000015 c 0 0.94399977 -0.73600006 1.5679998 -1.6960001 1.5679998 Z "/>
        </symbol>
        <symbol id="gF35979E6AC48C325CA4166BED145A530" overflow="visible">
            <path d="M 0 0m 2.424 2.8240001 c 0.5280001 0.20000005 1.0240002 0.704 1.0240002 1.3840001 c 0 0.34399986 -0.16799998 0.6240001 -0.49600005 0.84000015 c -0.2880001 0.18400002 -0.61599994 0.27999973 -0.9840001 0.27999973 c -0.36 0 -0.67200005 -0.09599972 -0.952 -0.27999973 c -0.31199998 -0.20800018 -0.472 -0.48000002 -0.472 -0.82400036 c 0 -0.2639997 0.176 -0.44799972 0.43200004 -0.44799972 c 0.25600004 0 0.43200004 0.18400002 0.43200004 0.43999982 c 0 0.26399994 -0.15200007 0.408 -0.4560001 0.42400026 c 0.20800006 0.27999973 0.536 0.4239998 0.9840001 0.4239998 c 0.48000002 0 0.72 -0.27999973 0.72 -0.84800005 c 0 -0.33599997 -0.06400013 -0.61599994 -0.18400002 -0.8479998 c -0.21600008 -0.38400006 -0.5120001 -0.4560001 -1.008 -0.4560001 c -0.096000075 -0.016000032 -0.14400005 -0.055999994 -0.14400005 -0.12800002 c 0 -0.120000124 0.055999994 -0.120000124 0.21599996 -0.120000124 h 0.3440001 c 0.5999999 0 0.90400004 -0.42400002 0.90400004 -1.28 c 0 -0.68 -0.24800014 -1.2720001 -0.85600007 -1.2720001 c -0.52 0 -0.90400004 0.17600001 -1.136 0.52800006 c 0.27999997 -0.008000016 0.48800004 0.19999999 0.48800004 0.47200006 c 0 0.27199996 -0.20000005 0.472 -0.47200006 0.472 c -0.312 0 -0.472 -0.16000009 -0.472 -0.48800004 c 0 -0.39200002 0.176 -0.70400006 0.528 -0.9520001 c 0.31199998 -0.21600002 0.68 -0.32000002 1.088 -0.32000002 c 0.4560001 0 0.84800005 0.15200001 1.1919999 0.448 c 0.3440001 0.296 0.5120001 0.66400003 0.5120001 1.112 c 0 0.7520001 -0.592 1.2720001 -1.2320001 1.44 Z "/>
        </symbol>
        <symbol id="gFE04E539483EE6775865397E1ABC3682" overflow="visible">
            <path d="M 0 0m 1.705 0.869 l 0.6049999 1.595 c 0.055000067 0.14299989 0.12100005 0.18700004 0.385 0.18700004 h 2.3209999 l 0.638 -1.859 c 0.13199997 -0.374 -0.28599977 -0.41799998 -0.81399965 -0.451 c -0.065999985 -0.065999985 -0.065999985 -0.297 0 -0.36299998 c 0.4069996 0.011 1.0119996 0.022 1.441 0.022 c 0.45099974 0 0.86899996 -0.011 1.2539997 -0.022 c 0.065999985 0.066 0.065999985 0.297 0 0.36299998 c -0.4289999 0.044 -0.803 0.07699999 -0.9899998 0.605 l -2.2660003 6.292 c -0.16499996 -0.09899998 -0.4619999 -0.21999979 -0.6049998 -0.21999979 l -2.497 -5.896 c -0.28600007 -0.682 -0.61600006 -0.74799997 -1.1 -0.781 c -0.066 -0.065999985 -0.066 -0.297 0 -0.36299998 c 0.286 0.011 0.649 0.022 0.979 0.022 c 0.45099998 0 1.0009999 -0.011 1.408 -0.022 c 0.065999985 0.066 0.065999985 0.297 0 0.36299998 c -0.41799998 0.033000022 -0.93499994 0.07699999 -0.75899994 0.528 Z m 1.1879998 2.244 c -0.24199986 0 -0.319 0.032999992 -0.27499986 0.14300013 l 1.122 2.849 h 0.065999985 l 1.0340002 -2.992 Z "/>
        </symbol>
        <symbol id="g3E5CF1717035F9EBEDE0E8BF2281274E" overflow="visible">
            <path d="M 0 0m 1.628 7.095 c -0.39600003 0 -0.99 0.011000156 -1.419 0.022000313 c -0.065999985 -0.065999985 -0.065999985 -0.29699993 0 -0.36299992 c 0.77 -0.032999992 0.957 -0.0880003 0.957 -1.0010004 v -4.411 c 0 -0.913 -0.18700004 -0.968 -0.957 -1.001 c -0.065999985 -0.065999985 -0.065999985 -0.297 0 -0.36299998 c 0.42900002 0.011 1.023 0.022 1.43 0.022 c 0.39600015 0 0.68200016 -0.022 1.606 -0.022 c 2.1890001 0 2.7720003 1.0999999 2.7720003 2.046 c 0 1.056 -0.73700047 1.661 -1.6940002 1.9360001 v 0.021999836 c 0.5500002 0.2750001 1.0450001 0.8470001 1.0450001 1.441 c 0 0.737 -0.31900024 1.6940002 -2.365 1.6940002 c -0.385 0 -0.9790001 -0.022000313 -1.375 -0.022000313 Z m 0.47300005 -3.4429998 h 0.7589998 c 1.5070002 0 2.134 -0.8469999 2.134 -1.837 c 0 -0.803 -0.3080001 -1.474 -1.98 -1.474 c -0.77 0 -0.91299987 0.28599998 -0.91299987 0.957 Z m 0 2.3980002 c 0 0.5829997 0 0.69299984 0.957 0.69299984 c 0.61599994 0 1.4189997 -0.32999992 1.4189997 -1.4520001 c 0 -0.93499994 -0.6489997 -1.2649999 -1.5619998 -1.2649999 h -0.8139999 Z "/>
        </symbol>
        <symbol id="gBDE20167591FE0A4AE21444719F1F086" overflow="visible">
            <path d="M 0 0m 3.927 -0.11 c 1.0669999 0 2.046 0.506 2.7940001 1.485 c -0.055000305 0.09899998 -0.13200045 0.16499996 -0.25300026 0.16499996 c -0.78100014 -0.858 -1.5289998 -1.199 -2.552 -1.199 c -1.4849999 0 -2.508 1.672 -2.508 3.2779999 c 0 0.9460001 0.25300002 1.7379999 0.6489999 2.2329998 c 0.54999995 0.671 1.188 0.9790001 1.76 0.9790001 c 1.5180001 0 2.1230001 -0.90199995 2.409 -1.848 c 0.13199997 -0.043999672 0.2420001 -0.01099968 0.36299992 0.055000305 c -0.05499983 0.572 -0.13199997 1.0999999 -0.24199963 1.7049999 c -0.56100035 0.05499983 -1.0560002 0.4949999 -2.4090002 0.4949999 c -0.93499994 0 -1.7160001 -0.34100008 -2.365 -0.93499994 c -0.72599995 -0.671 -1.1659999 -1.7490001 -1.1659999 -2.893 c 0 -1.914 1.155 -3.52 3.52 -3.52 Z "/>
        </symbol>
        <symbol id="g221FAE6788DB8C6A9B1A4ECC82D50CAF" overflow="visible">
            <path d="M 0 0m 1.628 7.095 c -0.39600003 0 -0.97900003 0.011000156 -1.419 0.022000313 c -0.065999985 -0.065999985 -0.065999985 -0.29699993 0 -0.36299992 c 0.77 -0.032999992 0.957 -0.0880003 0.957 -1.0010004 v -4.411 c 0 -0.913 -0.18700004 -0.968 -0.957 -1.001 c -0.065999985 -0.065999985 -0.065999985 -0.297 0 -0.36299998 c 0.42900002 0.011 1.012 0.022 1.43 0.022 c 0.40700006 0 0.86899996 -0.022 2.002 -0.022 c 1.5509999 0 3.597 0.704 3.597 3.41 c 0 2.046 -1.6830001 3.729 -3.7949998 3.729 c -0.78100014 0 -1.3860002 -0.022000313 -1.815 -0.022000313 Z m 0.47300005 -6.1709995 v 5.2799997 c 0 0.38499975 0.385 0.53900003 0.924 0.53900003 c 2.376 0 3.157 -1.9250002 3.157 -3.619 c 0 -2.2220001 -1.3310003 -2.772 -2.8820002 -2.772 c -1.0780001 0 -1.1989999 0.22000003 -1.1989999 0.572 Z "/>
        </symbol>
        <symbol id="g56F09EF856CD1489BBBA7D138BEA8F5" overflow="visible">
            <path d="M 0 0m 3.113 3.553 c 0.93499994 0 0.96799994 -0.25300002 1.0009999 -0.7479999 c 0.065999985 -0.065999985 0.29699993 -0.065999985 0.36299992 0 c -0.01099968 0.27499986 -0.021999836 0.59399986 -0.021999836 0.96799994 c 0 0.37399983 0.011000156 0.6600001 0.021999836 0.94599986 c -0.065999985 0.065999985 -0.29699993 0.065999985 -0.36299992 0 c -0.032999992 -0.605 -0.065999985 -0.7479999 -1.0009999 -0.7479999 h -1.023 v 1.9799998 c 0 0.59400034 0.13199997 0.704 0.6160002 0.704 h 0.4949999 c 1.1660001 0 1.4410002 -0.43999958 1.6829998 -1.1989999 c 0.13199997 0 0.25300026 0.022000313 0.34100008 0.055000305 c -0.05499983 0.45099974 -0.21999979 1.507 -0.2420001 1.5949998 c 0 0.021999836 -0.01099968 0.032999992 -0.043999672 0.032999992 c -0.18700027 -0.032999992 -0.2420001 -0.04400015 -0.5170002 -0.04400015 h -2.8049998 c -0.352 0 -0.979 0.011000156 -1.419 0.022000313 c -0.066 -0.065999985 -0.066 -0.29699993 0 -0.36299992 c 0.77 -0.032999992 0.95699996 -0.0880003 0.95699996 -1.0010004 v -4.411 c 0 -0.913 -0.18699998 -0.968 -0.95699996 -1.001 c -0.066 -0.065999985 -0.066 -0.297 0 -0.36299998 c 0.385 0.011 0.935 0.022 1.4300001 0.022 c 0.4949999 0 1.0339999 -0.011 1.4189999 -0.022 c 0.065999985 0.066 0.065999985 0.297 0 0.36299998 c -0.77 0.033000022 -0.957 0.088 -0.957 1.001 v 2.211 Z "/>
        </symbol>
        <symbol id="g80723B9C0A918C3A8709DE0BC252F54C" overflow="visible">
            <path d="M 0 0m 1.9909999 1.342 v 2.189 c 0 0.54999995 0.04400015 1.254 0.04400015 1.254 c 0 0.04400015 -0.055000067 0.07700014 -0.14300013 0.07700014 c -0.30799997 -0.12099981 -0.7479999 -0.21999979 -1.507 -0.31900024 c -0.021999985 -0.065999985 0 -0.24199963 0.022000015 -0.3079996 c 0.60499996 -0.055000305 0.715 -0.12100029 0.715 -0.74800014 v -2.145 c 0 -0.913 -0.12099993 -0.946 -0.792 -1.001 c -0.065999985 -0.065999985 -0.065999985 -0.297 0 -0.36299998 c 0.36300004 0.011 0.792 0.022 1.2320001 0.022 c 0.44000006 0 0.85800004 -0.011 1.221 -0.022 c 0.065999985 0.066 0.065999985 0.297 0 0.36299998 c -0.671 0.044 -0.79200006 0.088 -0.79200006 1.001 Z m -1.0009999 5.2469997 c 0 -0.28599977 0.26399994 -0.57199955 0.528 -0.57199955 c 0.30799997 0 0.5719999 0.29699993 0.5719999 0.5279999 c 0 0.26399994 -0.23099995 0.572 -0.5279999 0.572 c -0.26400006 0 -0.572 -0.26399994 -0.572 -0.52800035 Z "/>
        </symbol>
        <symbol id="gC1A56354AB16CA354F140BD2C6EDE55" overflow="visible">
            <path d="M 0 0m 4.884 4.257 c 0.20900011 0 0.40700006 0.19799995 0.40700006 0.41800022 c 0 0.23099995 -0.20900011 0.4069996 -0.50600004 0.4069996 c -0.28599977 0 -0.8139999 -0.1869998 -1.0999999 -0.5609999 c -0.13199997 0.0880003 -0.4949999 0.3080001 -1.144 0.3080001 c -0.97899985 0 -1.8809999 -0.65999985 -1.8809999 -1.6719999 c 0 -0.5940001 0.26400006 -0.9350002 0.572 -1.2320001 c -0.30799997 -0.26399994 -0.48399997 -0.737 -0.48399997 -1.111 c 0 -0.39600003 0.21999997 -0.704 0.5059999 -0.847 c -0.594 -0.352 -0.90199995 -0.858 -0.90199995 -1.331 c 0 -0.95700014 0.90199995 -1.2540001 1.7490001 -1.2540001 c 1.4849999 0 3.0909998 0.71500003 3.0909998 1.9030001 c 0 0.35199997 -0.16499996 0.627 -0.48399973 0.891 c -0.42900038 0.352 -1.1990001 0.36299998 -1.6060002 0.36299998 c -0.19799995 0 -0.47300005 -0.021999955 -0.737 -0.054999977 c -0.16499996 -0.011000007 -0.2750001 -0.021999985 -0.32999992 -0.021999985 c -0.31900012 0 -0.7040001 0.15399998 -0.7040001 0.627 c 0 0.22000003 0.065999985 0.45099998 0.19800007 0.638 c 0.26399994 -0.15400004 0.572 -0.23099995 1.0009999 -0.23099995 c 0.96799994 0 1.859 0.605 1.859 1.6829998 c 0 0.5170002 -0.1539998 0.8140001 -0.47300005 1.144 c 0.07700014 0.11000013 0.29699993 0.26399994 0.44000006 0.26399994 c 0.07700014 0 0.1539998 -0.032999992 0.22000027 -0.13199997 c 0.043999672 -0.08799982 0.1869998 -0.19799995 0.3079996 -0.19799995 Z m -3.4319997 -4.367 c 0.12099993 -0.033000007 0.29699993 -0.054999992 0.43999994 -0.054999992 c 0.34100008 0 0.6489999 0.032999992 0.803 0.032999992 c 0.54999995 0 1.0120001 -0.011000007 1.3310001 -0.187 c 0.4289999 -0.24199998 0.5609999 -0.39599997 0.5609999 -0.68200004 c 0 -0.79199994 -1.1659999 -1.2099999 -2.156 -1.2099999 c -0.3959999 0 -1.32 0.319 -1.32 1.0669999 c 0 0.37400007 0.022000074 0.64900005 0.34100008 1.034 Z m 2.0570002 3.179 c 0 -1.023 -0.51699996 -1.232 -0.924 -1.232 c -0.924 0 -1.023 0.781 -1.023 1.485 c 0 0.77 0.27499998 1.1659999 0.8799999 1.1659999 c 0.6930001 0 1.0670002 -0.50600004 1.0670002 -1.4189999 Z "/>
        </symbol>
        <symbol id="gE8B08BB0E494C01E08CB3EE0FE93D76A" overflow="visible">
            <path d="M 0 0m 2.387 -0.11 c 0.4289999 0 0.94599986 0.22 1.4849999 0.66 c 0.055000067 0.04399997 0.15400004 0.065999985 0.1650002 -0.011000037 c 0.032999992 -0.27499998 0.12099981 -0.649 0.12099981 -0.649 c 0.08799982 -0.033000007 0.14300013 -0.022 0.20900011 0 c 0.2420001 0.198 0.62699986 0.36299998 1.2979999 0.44 c 0.065999985 0.066000015 0.065999985 0.231 0 0.297 c -0.704 0.055000007 -0.803 0.264 -0.803 0.803 v 2.112 c 0 0.32999992 0.04400015 1.1330001 0.04400015 1.1330001 c 0 0.032999992 -0.032999992 0.065999985 -0.0880003 0.065999985 c -0.05499983 -0.011000156 -0.21999979 -0.022000313 -0.38499975 -0.022000313 c -0.35200024 0 -0.74800014 0.011000156 -1.1220002 0.022000313 c -0.065999985 -0.065999985 -0.065999985 -0.2970004 0 -0.3630004 c 0.53900003 -0.032999992 0.68200016 -0.16499996 0.68200016 -0.8909998 v -2.1230001 c 0 -0.20899999 -0.022000074 -0.29699993 -0.17600012 -0.42899996 c -0.40699983 -0.352 -0.8249998 -0.528 -1.0999999 -0.528 c -0.32999992 0 -0.88 0.15399998 -0.88 1.1329999 v 2.002 c 0 0.32999992 0.04400003 1.1330001 0.04400003 1.1330001 c 0 0.032999992 -0.032999992 0.065999985 -0.08800006 0.065999985 c -0.054999948 -0.011000156 -0.22000003 -0.022000313 -0.385 -0.022000313 c -0.352 0 -0.748 0.011000156 -1.122 0.022000313 c -0.066000015 -0.065999985 -0.066000015 -0.2970004 0 -0.3630004 c 0.528 -0.043999672 0.682 -0.16499996 0.682 -0.8799999 v -2.112 c 0 -0.75900006 0.32999998 -1.496 1.4190001 -1.496 Z "/>
        </symbol>
        <symbol id="g19B373248AE229D68CE91FF3267DF00C" overflow="visible">
            <path d="M 0 0m 1.936 3.938 c -0.021999955 0.43999982 -0.032999992 0.7260001 -0.08799994 0.8360002 c -0.022000074 0.05499983 -0.04400003 0.08799982 -0.13200009 0.08799982 c -0.30799997 -0.12099981 -0.594 -0.21999979 -1.3529999 -0.31900024 c -0.022000015 -0.065999985 0 -0.24199963 0.021999985 -0.3079996 c 0.594 -0.055000305 0.71500003 -0.11000013 0.71500003 -0.74800014 v -2.145 c 0 -0.913 -0.13200003 -0.957 -0.814 -1.001 c -0.066000015 -0.065999985 -0.066000015 -0.297 0 -0.36299998 c 0.385 0.011 0.814 0.022 1.254 0.022 c 0.44000006 0 0.9460001 -0.011 1.3310001 -0.022 c 0.065999985 0.066 0.065999985 0.297 0 0.36299998 c -0.77 0.055000007 -0.90200007 0.088 -0.90200007 1.001 v 1.529 c 0 0.286 0.13200009 0.53900003 0.26400006 0.737 c 0.12100005 0.17599988 0.37399983 0.5389998 0.50600004 0.5389998 c 0.09899998 0 0.19799995 -0.021999836 0.286 -0.14299965 c 0.0769999 -0.11000013 0.20899987 -0.25300026 0.3959999 -0.25300026 c 0.26399994 0 0.51699996 0.2750001 0.51699996 0.5500002 c 0 0.20899963 -0.19799995 0.5279999 -0.6600001 0.5279999 c -0.51699996 0 -0.96799994 -0.4840002 -1.221 -0.9130001 c -0.065999985 -0.12099981 -0.12099993 -0.032999992 -0.12099993 0.022000074 Z "/>
        </symbol>
        <symbol id="g7C0E51A326CA50E628618661BD88BB6" overflow="visible">
            <path d="M 0 0m 4.246 1.023 c -0.40699983 -0.41799998 -0.72599983 -0.594 -1.3639998 -0.594 c -0.3959999 0 -0.85800004 0.23099998 -1.199 0.79199994 c -0.22000003 0.36300004 -0.352 0.86899996 -0.352 1.507 l 2.926 -0.021999836 c 0.13199997 0 0.20900011 0.065999985 0.20900011 0.1869998 c 0 0.924 -0.32999992 1.9140003 -1.8590002 1.9140003 c -0.9569999 0 -2.1999998 -0.9130001 -2.1999998 -2.5850003 c 0 -0.61599994 0.15399998 -1.2099999 0.517 -1.6279999 c 0.37399995 -0.44 0.8909999 -0.704 1.6829998 -0.704 c 0.8360002 0 1.4300003 0.385 1.8699999 0.957 c -0.032999992 0.110000014 -0.09899998 0.16499996 -0.23099995 0.176 Z m -2.882 2.079 c 0.20899999 1.2429998 0.979 1.3419998 1.2429999 1.3419998 c 0.41800022 0 0.9130001 -0.23099995 0.9130001 -1.1549997 c 0 -0.09899998 -0.04399991 -0.15400004 -0.16499996 -0.15400004 Z "/>
        </symbol>
        <symbol id="gC2D7A11741CCA66FA9AA4DE12A386E50" overflow="visible">
            <path d="M 0 0m 3.168 1.342 v 3.817 c 0 0.65999985 0.010999918 1.3309999 0.032999992 1.474 c 0 0.05499983 -0.022000074 0.05499983 -0.065999985 0.05499983 c -0.605 -0.3739996 -1.188 -0.6489997 -2.1560001 -1.0999999 c 0.022000074 -0.12099981 0.065999985 -0.23099995 0.16500008 -0.29699993 c 0.5059999 0.20900011 0.7479999 0.2750001 0.957 0.2750001 c 0.18700004 0 0.22000003 -0.26399994 0.22000003 -0.638 v -3.586 c 0 -0.913 -0.29700017 -0.968 -1.0670002 -1.001 c -0.065999985 -0.065999985 -0.065999985 -0.297 0 -0.36299998 c 0.53900003 0.011 0.93499994 0.022 1.529 0.022 c 0.5279999 0 0.79200006 -0.011 1.342 -0.022 c 0.065999985 0.066 0.065999985 0.297 0 0.36299998 c -0.77 0.033000022 -0.957 0.088 -0.957 1.001 Z "/>
        </symbol>
        <symbol id="g3E8771E64A7D1F5C477B469F3BD83CDC" overflow="visible">
            <path d="M 0 0m 0.77 0.65999997 c 0 -0.31899998 0.26400006 -0.58299994 0.58300006 -0.58299994 c 0.3189999 0 0.58299994 0.264 0.58299994 0.58299994 c 0 0.319 -0.26400006 0.58300006 -0.58299994 0.58300006 c -0.319 0 -0.58300006 -0.26400006 -0.58300006 -0.58300006 Z m 0 3.2779999 c 0 -0.319 0.26400006 -0.58299994 0.58300006 -0.58299994 c 0.3189999 0 0.58299994 0.26399994 0.58299994 0.58299994 c 0 0.319 -0.26400006 0.58299994 -0.58299994 0.58299994 c -0.319 0 -0.58300006 -0.26399994 -0.58300006 -0.58299994 Z "/>
        </symbol>
        <symbol id="gEBA513237BF58DF10F81DE40D9BAA4B8" overflow="visible">
            <path d="M 0 0m 1.892 5.753 c 0 0.9130001 0.16499996 0.9680004 1.0120001 1.0010004 c 0.065999985 0.065999985 0.065999985 0.29699993 0 0.36299992 c -0.51699996 -0.011000156 -1.056 -0.022000313 -1.485 -0.022000313 c -0.42900002 0 -0.88000005 0.011000156 -1.309 0.022000313 c -0.066 -0.065999985 -0.066 -0.29699993 0 -0.36299992 c 0.65999997 -0.032999992 0.847 -0.0880003 0.847 -1.0010004 v -3.1899998 c 0 -2.244 1.4519999 -2.6729999 2.574 -2.6729999 c 2.2549999 0 2.794 1.397 2.794 3.3549998 v 2.508 c 0 0.8800001 0.18700027 0.92400026 0.8470001 1.0010004 c 0.065999985 0.065999985 0.065999985 0.29699993 0 0.36299992 c -0.41799974 -0.011000156 -0.86899996 -0.022000313 -1.1219997 -0.022000313 c -0.23100042 0 -0.77000046 0.011000156 -1.276 0.022000313 c -0.065999985 -0.065999985 -0.065999985 -0.29699993 0 -0.36299992 c 0.8249998 -0.07700014 1.0119996 -0.11000013 1.0119996 -1.0010004 v -2.7059999 c 0 -1.232 -0.16499996 -2.7059999 -2.0239997 -2.7059999 c -0.5280001 0 -0.9790001 0.19799998 -1.309 0.51699996 c -0.53900003 0.517 -0.5610001 1.3529999 -0.5610001 2.0679998 Z "/>
        </symbol>
        <symbol id="g75777525027B055A94D69C6C1694F54F" overflow="visible">
            <path d="M 0 0m 1.716 4.048 c -0.010999918 0.32999992 -0.032999992 0.6160002 -0.08799994 0.7260003 c -0.022000074 0.05499983 -0.04400003 0.08799982 -0.13199997 0.08799982 c -0.3080001 -0.12099981 -0.59400004 -0.21999979 -1.353 -0.31900024 c -0.022000007 -0.065999985 0 -0.24199963 0.021999985 -0.3079996 c 0.594 -0.055000305 0.71500003 -0.11000013 0.71500003 -0.74800014 v -4.697 c 0 -0.91299987 -0.12099999 -0.96799994 -0.792 -1.0009999 c -0.066 -0.065999985 -0.066 -0.29699993 0 -0.36299992 c 0.385 0.010999918 0.792 0.021999836 1.2319999 0.021999836 c 0.44000006 0 0.9680002 -0.010999918 1.3310001 -0.021999836 c 0.065999985 0.065999985 0.065999985 0.29699993 0 0.36299992 c -0.781 0.04399991 -0.90200007 0.08800006 -0.90200007 1.0009999 v 1.1880001 c 0 0.143 0.04400003 0.132 0.15400004 0.088 c 0.27499998 -0.11 0.6049999 -0.176 0.9569999 -0.176 c 0.6160002 0 1.1660001 0.187 1.6169999 0.616 c 0.5170002 0.506 0.8140001 1.188 0.8140001 2.079 c 0 1.1659999 -0.8249998 2.244 -1.947 2.244 c -0.5059998 0 -1.0669999 -0.32999992 -1.5069999 -0.8249998 c -0.065999985 -0.06600022 -0.110000014 -0.06600022 -0.12100005 0.043999672 Z m 0.20899999 -0.40699983 c 0.286 0.352 0.79200006 0.6819999 1.1110001 0.6819999 c 0.704 0 1.3089998 -0.79200006 1.3089998 -2.0349998 c 0 -0.90200007 -0.31899977 -2.0240002 -1.5509999 -2.0240002 c -0.19799995 0 -0.58299994 0.055000007 -0.7809999 0.231 c -0.22000003 0.19800001 -0.26400006 0.264 -0.26400006 0.65999997 v 2.002 c 0 0.23099995 0.04400003 0.32999992 0.176 0.48399997 Z "/>
        </symbol>
        <symbol id="g33ECB15847DF2055C7626C9EE174CAC9" overflow="visible">
            <path d="M 0 0m 4.345 6.941 c -0.6379998 0.08799982 -0.6159997 0.29699993 -1.6939998 0.29699993 c -1.1110001 0 -2.0900002 -0.737 -2.0900002 -1.9029999 c 0 -1.1550002 0.957 -1.6830001 1.9250001 -2.0570002 c 0.65999985 -0.25299978 1.474 -0.5609999 1.474 -1.6389999 c 0 -0.8909999 -0.49500012 -1.3529999 -1.375 -1.3529999 c -1.023 0 -1.6830001 0.473 -1.9250001 1.562 c -0.14299995 0.04399991 -0.25299996 0.021999955 -0.36299998 -0.03300011 c 0.044 -0.84699994 0.088 -1.1329999 0.22000003 -1.6719999 c 0.693 0 1.0009999 -0.25300002 1.98 -0.25300002 c 0.49500012 0 0.96799994 0.121 1.3529999 0.36299998 c 0.638 0.396 1.0339999 1.0669999 1.0339999 1.7709999 c 0 1.1660001 -0.87999964 1.6830001 -1.7819998 2.024 c -0.6600001 0.2420001 -1.76 0.6600003 -1.76 1.5840001 c 0 0.6160002 0.561 1.2319999 1.21 1.2319999 c 1.0669999 0 1.408 -0.6819997 1.6279998 -1.408 c 0.12100029 -0.021999836 0.26399994 -0.01099968 0.36299992 0.065999985 c -0.043999672 0.52800035 -0.08799982 0.83599997 -0.19799995 1.4190001 Z "/>
        </symbol>
        <symbol id="g1770AF8213C346623FB4E95C8CFC5D3B" overflow="visible">
            <path d="M 0 0m 0.473 4.719 c -0.15399998 0 -0.19799998 -0.13199997 -0.19799998 -0.21999979 v -0.14300013 c 0 -0.05499983 0.011000007 -0.065999985 0.054999977 -0.065999985 h 0.649 v -3.3109999 c 0 -0.78099996 0.34099996 -1.089 0.847 -1.089 c 0.50600004 0 1.056 0.242 1.4849999 0.726 c -0.021999836 0.110000014 -0.08799982 0.176 -0.19799995 0.18699998 c -0.286 -0.21999997 -0.61599994 -0.30799997 -0.90199995 -0.30799997 c -0.29699993 0 -0.36299992 0.32999998 -0.36299992 1.012 v 2.783 h 1.144 c 0.109999895 0 0.26399994 0.04400015 0.26399994 0.14300013 v 0.21999979 c 0 0.04400015 -0.032999992 0.065999985 -0.08800006 0.065999985 h -1.3199999 v 0.4289999 c 0 0.71500015 0.04399991 1.1550002 0.04399991 1.1550002 c 0 0.065999985 -0.032999992 0.09899998 -0.08799994 0.09899998 c -0.04400003 0 -0.143 -0.04400015 -0.24199998 -0.09899998 c -0.12100005 -0.065999985 -0.23100007 -0.12099981 -0.37400007 -0.1539998 c -0.13199997 -0.04400015 -0.24199998 -0.07700014 -0.24199998 -0.15400028 c 0 -0.13199997 0.032999992 -0.05499983 0.032999992 -1.276 Z "/>
        </symbol>
        <symbol id="g9ADB02DC177E6143ECAB98EC27EF1649" overflow="visible">
            <path d="M 0 0m 1.144 5.753 v -4.411 c 0 -0.913 -0.18700004 -0.968 -0.957 -1.001 c -0.06600001 -0.065999985 -0.06600001 -0.297 0 -0.36299998 c 0.49499997 0.011 1.0339999 0.022 1.43 0.022 c 0.3850001 0 1.034 -0.011 1.584 -0.022 c 0.065999985 0.066 0.065999985 0.297 0 0.36299998 c -0.85800004 0.044 -1.122 0.088 -1.122 1.001 v 1.8699999 c 0.2420001 -0.0769999 0.50600004 -0.109999895 0.89100003 -0.109999895 c 2.002 0 2.607 1.3089998 2.607 2.2440002 c 0 0.6489997 -0.42900038 1.8259997 -2.4640002 1.8259997 c -0.41799998 0 -1.0669999 -0.07700014 -1.507 -0.07700014 c -0.40699995 0 -0.979 0.011000156 -1.4189999 0.022000313 c -0.06600001 -0.065999985 -0.06600001 -0.29699993 0 -0.36299992 c 0.77 -0.032999992 0.957 -0.0880003 0.957 -1.0010004 Z m 0.93499994 0.34100008 c 0 0.31900024 0.16499996 0.704 0.957 0.704 c 0.75900006 0 1.5179999 -0.25299978 1.5179999 -1.6500001 c 0 -1.1879997 -0.572 -1.6719997 -1.6389999 -1.6719997 c -0.2750001 0 -0.7149999 0.021999836 -0.83599997 0.05499983 Z "/>
        </symbol>
        <symbol id="gE83CC290A28C70F2E8CCC73BC7E8163D" overflow="visible">
            <path d="M 0 0m 1.045 1.342 c 0 -0.913 -0.12099993 -0.968 -0.79199994 -1.001 c -0.065999985 -0.065999985 -0.065999985 -0.297 0 -0.36299998 c 0.38500002 0.011 0.79199994 0.022 1.232 0.022 c 0.43999994 0 0.8579999 -0.011 1.2210001 -0.022 c 0.065999985 0.066 0.065999985 0.297 0 0.36299998 c -0.671 0.033000022 -0.79200006 0.088 -0.79200006 1.001 v 5.071 c 0 0.7149997 0.04399991 1.1549997 0.04399991 1.1549997 c 0 0.07700014 -0.04399991 0.11000013 -0.143 0.11000013 c -0.27499998 -0.11000013 -1.0999999 -0.26399994 -1.54 -0.29699993 c -0.022000015 -0.0880003 0 -0.26399994 0.065999985 -0.32999992 c 0.638 -0.04400015 0.704 -0.07700014 0.704 -0.90199995 Z "/>
        </symbol>
        <symbol id="g9CFD982A7EF6925B03559430420E463D" overflow="visible">
            <path d="M 0 0m 0.451 2.2549999 c 0 -1.1219999 0.748 -2.3649998 2.31 -2.3649998 c 0.704 0 1.2430003 0.25300002 1.6169999 0.616 c 0.49500036 0.48400003 0.71500015 1.177 0.71500015 1.848 c 0 1.1439998 -0.62699986 2.475 -2.31 2.475 c -0.7260001 0 -1.32 -0.29699993 -1.727 -0.77 c -0.39600003 -0.47300005 -0.605 -1.1110001 -0.605 -1.8040001 Z m 2.167 2.189 c 0.94599986 0 1.5289998 -0.8579998 1.5289998 -2.4419997 c 0 -1.3860002 -0.7149999 -1.7270001 -1.2319999 -1.7270001 c -1.1439999 0 -1.518 1.386 -1.518 2.2329998 c 0 0.957 0.23100007 1.9359999 1.2210001 1.9359999 Z "/>
        </symbol>
        <symbol id="g4B89028CF664E1EF1FA3FD8F990833CC" overflow="visible">
            <path d="M 0 0m 1.925 1.342 v 2.948 h 1.023 c 0.09899998 0 0.25300002 0.04400015 0.25300002 0.14300013 v 0.21999979 c 0 0.04400015 -0.032999992 0.065999985 -0.08800006 0.065999985 h -1.188 v 0.62700033 c 0 1.6939998 0.50600004 1.9579997 0.86899996 1.9579997 c 0.33000016 0 0.50600004 -0.13199997 0.6600001 -0.5169997 c 0.08800006 -0.19800043 0.20899987 -0.35200024 0.44000006 -0.35200024 c 0.1869998 0 0.45099974 0.23099995 0.45099974 0.4510002 c 0 0.1869998 -0.12099981 0.38499975 -0.35199976 0.5609999 c -0.286 0.19799995 -0.572 0.23099995 -0.99 0.23099995 c -0.924 0 -1.947 -0.803 -1.947 -2.519 v -0.44000006 h -0.561 c -0.19800001 0 -0.25300002 -0.13199997 -0.25300002 -0.21999979 v -0.14300013 c 0 -0.05499983 0.0109999925 -0.065999985 0.054999992 -0.065999985 h 0.759 v -2.948 c 0 -0.913 -0.176 -0.957 -0.77 -1.001 c -0.066000015 -0.065999985 -0.066000015 -0.297 0 -0.36299998 c 0.385 0.011 0.77 0.022 1.21 0.022 c 0.43999994 0 0.96799994 -0.011 1.3529999 -0.022 c 0.065999985 0.066 0.065999985 0.297 0 0.36299998 c -0.85800004 0.044 -0.924 0.088 -0.924 1.001 Z "/>
        </symbol>
        <symbol id="gB87802A013B5AD7F65035FBB59450BA0" overflow="visible">
            <path d="M 0 0m 2.101 1.342 v 4.411 c 0 0.9130001 0.18700004 0.9680004 0.957 1.0010004 c 0.065999985 0.065999985 0.065999985 0.29699993 0 0.36299992 c -0.4840002 -0.011000156 -1.0010002 -0.022000313 -1.4300001 -0.022000313 c -0.36300004 0 -0.902 0.011000156 -1.419 0.022000313 c -0.065999985 -0.065999985 -0.065999985 -0.29699993 0 -0.36299992 c 0.77 -0.032999992 0.957 -0.0880003 0.957 -1.0010004 v -4.411 c 0 -0.913 -0.18700004 -0.968 -0.957 -1.001 c -0.065999985 -0.065999985 -0.065999985 -0.297 0 -0.36299998 c 0.495 0.011 1.034 0.022 1.43 0.022 c 0.39600015 0 0.924 -0.011 1.4190001 -0.022 c 0.065999985 0.066 0.065999985 0.297 0 0.36299998 c -0.77 0.033000022 -0.957 0.088 -0.957 1.001 Z "/>
        </symbol>
        <symbol id="g3ED00D6A7DD9347C2CB04B47C8DDD09B" overflow="visible">
            <path d="M 0 0m 2.024 3.938 c -0.065999985 -0.0769999 -0.13199997 -0.09899998 -0.13199997 0 c -0.010999918 0.29700017 -0.032999992 0.7260001 -0.08799994 0.8360002 c -0.022000074 0.05499983 -0.04400003 0.08799982 -0.13200009 0.08799982 c -0.30799997 -0.12099981 -0.594 -0.21999979 -1.3529999 -0.31900024 c -0.022000015 -0.065999985 0 -0.24199963 0.021999985 -0.3079996 c 0.594 -0.055000305 0.71500003 -0.11000013 0.71500003 -0.74800014 v -2.145 c 0 -0.902 -0.110000014 -0.946 -0.77 -1.001 c -0.066000015 -0.065999985 -0.066000015 -0.297 0 -0.36299998 c 0.32999998 0.011 0.77 0.022 1.21 0.022 c 0.43999994 0 0.77 -0.011 1.0999999 -0.022 c 0.065999985 0.066 0.065999985 0.297 0 0.36299998 c -0.5609999 0.055000007 -0.671 0.09900001 -0.671 1.001 v 1.8039999 c 0 0.23100019 0.09899998 0.36300015 0.18700004 0.46200013 c 0.41799998 0.40699983 0.9130001 0.6489999 1.342 0.6489999 c 0.22000003 0 0.45099998 -0.14300013 0.5830002 -0.3959999 c 0.10999966 -0.22000003 0.13199997 -0.5170002 0.13199997 -0.8470001 v -1.6719999 c 0 -0.902 -0.11000013 -0.946 -0.68200016 -1.001 c -0.055000067 -0.065999985 -0.055000067 -0.297 0 -0.36299998 c 0.32999992 0.011 0.68200016 0.022 1.1220002 0.022 c 0.43999958 0 0.83599997 -0.011 1.1659999 -0.022 c 0.05499983 0.066 0.05499983 0.297 0 0.36299998 c -0.6160002 0.055000007 -0.737 0.09900001 -0.737 1.001 v 1.6389999 c 0 0.605 -0.04400015 1.1329999 -0.29699993 1.474 c -0.18700027 0.2420001 -0.52800035 0.37400007 -0.9130001 0.37400007 c -0.53900003 0 -1.155 -0.14300013 -1.8040001 -0.89100003 Z "/>
        </symbol>
        <symbol id="g9533FE3887B531C38C1C4562CDFC4009" overflow="visible">
            <path d="M 0 0m 0.528 1.518 c 0.04400003 -0.53900003 0.07700002 -1.056 0.07700002 -1.518 c 0.109999955 0.022 0.21999997 0.033 0.27499998 0.033 c 0.07700002 0 0.143 0 0.22000003 -0.022 c 0.29699993 -0.077 0.594 -0.121 1.001 -0.121 c 0.61599994 0 1.7489998 0.297 1.7489998 1.386 c 0 0.7479999 -0.53900003 1.188 -1.287 1.463 c -0.65999997 0.25300002 -1.1 0.41799998 -1.1 1.023 c 0 0.45099974 0.39600003 0.704 0.7700001 0.704 c 0.24199986 0 0.8799999 -0.0880003 1.023 -1.023 c 0.065999985 -0.065999985 0.286 -0.055000067 0.352 0.010999918 c 0.032999992 0.3959999 0.05499983 0.803 0.065999985 1.1659999 c -0.34100008 0.055000305 -0.86899996 0.20900011 -1.441 0.20900011 c -0.814 0 -1.5510001 -0.5279999 -1.5510001 -1.2320001 c 0 -0.803 0.36299998 -1.1439998 1.21 -1.4959998 c 0.9130001 -0.37400007 1.122 -0.605 1.122 -1.0780001 c 0 -0.53900003 -0.5279999 -0.77 -0.93499994 -0.77 c -0.42900002 0 -0.671 0.143 -0.781 0.26400003 c -0.24199998 0.25299996 -0.36299998 0.7369999 -0.42899996 1.0120001 c -0.066000044 0.065999985 -0.27500004 0.054999948 -0.34100002 -0.011000037 Z "/>
        </symbol>
        <symbol id="gF8C4C2589F8AD3A43083267D7D7CF860" overflow="visible">
            <path d="M 0 0m 4.378 1.001 c -0.043999672 0.09899998 -0.13199997 0.143 -0.23099995 0.15399992 c -0.37399983 -0.48399997 -0.8469999 -0.72599995 -1.3199999 -0.72599995 c -0.803 0 -1.4739999 0.814 -1.4739999 2.101 c 0 1.21 0.528 1.9360001 1.2539998 1.9360001 c 0.64900017 0 0.737 -0.38500023 0.78100014 -0.77 c 0.032999992 -0.29700017 0.18700004 -0.39600015 0.41799998 -0.39600015 c 0.23100019 0 0.5389998 0.14300013 0.5389998 0.48399997 c 0 0.605 -0.62699986 1.0450001 -1.6829998 1.0450001 c -1.089 0 -2.2549999 -0.9790001 -2.2549999 -2.541 c 0 -1.4190001 0.792 -2.398 2.178 -2.398 c 0.65999985 0 1.243 0.20899999 1.7929997 1.1110001 Z "/>
        </symbol>
        <symbol id="g6ACFF760A35DA6D4BC5F52E32B96F2BE" overflow="visible">
            <path d="M 0 0m 2.233 4.378 c 0.065999985 0.065999985 0.065999985 0.2970004 0 0.3630004 c -0.33000004 -0.011000156 -0.71500003 -0.022000313 -1.1110001 -0.022000313 c -0.41799998 0 -0.715 0.011000156 -1.0009999 0.022000313 c -0.066 -0.065999985 -0.066 -0.2970004 0 -0.3630004 c 0.517 -0.05499983 0.638 -0.16499996 0.869 -0.73699975 l 1.441 -3.553 c 0.065999985 -0.154 0.15400004 -0.22 0.26399994 -0.22 c 0.09899998 0 0.18700004 0.066 0.26399994 0.242 l 1.1110003 2.706 l 1.1329999 -2.728 c 0.065999985 -0.154 0.1539998 -0.22 0.26399994 -0.22 c 0.09899998 0 0.1869998 0.066 0.25299978 0.231 l 1.441 3.487 c 0.17600012 0.4510002 0.3630004 0.7589998 0.92400026 0.7919998 c 0.065999985 0.065999985 0.065999985 0.2970004 0 0.3630004 c -0.22000027 -0.011000156 -0.4619999 -0.022000313 -0.7920003 -0.022000313 c -0.32999992 0 -0.7919998 0.011000156 -1.1219997 0.022000313 c -0.065999985 -0.065999985 -0.065999985 -0.2970004 0 -0.3630004 c 0.8249998 -0.043999672 0.71500015 -0.36299992 0.5609999 -0.7479999 l -0.9239998 -2.2879999 c -0.11000013 -0.27499998 -0.15400028 -0.27499998 -0.2420001 -0.04400003 l -0.9460001 2.409 c -0.20900011 0.51699996 -0.1869998 0.6270001 0.3959999 0.67099977 c 0.065999985 0.065999985 0.065999985 0.2970004 0 0.3630004 c -0.32999992 -0.011000156 -0.77 -0.022000313 -1.0999999 -0.022000313 c -0.27499986 0 -0.638 0.011000156 -0.96799994 0.022000313 c -0.065999985 -0.065999985 -0.065999985 -0.2970004 0 -0.3630004 c 0.51699996 -0.043999672 0.6489999 -0.36299992 0.8470001 -0.8579998 l 0.065999985 -0.17600012 l -0.77 -1.9469999 c -0.14300013 -0.36299992 -0.1650002 -0.37399995 -0.3080001 -0.021999955 l -0.88 2.266 c -0.20899999 0.5280001 -0.19799995 0.70399976 0.33000004 0.73699975 Z "/>
        </symbol>
        <symbol id="g28FC739CA38E4C939D0A102E2DDA5D5F" overflow="visible">
            <path d="M 0 0m 4.73 2.409 h -0.9130001 v 3.212 c 0 0.5500002 0 0.9790001 0.022000074 1.0669999 l -0.022000074 0.022000313 h -0.352 c -0.0769999 0 -0.13199997 -0.065999985 -0.17599988 -0.12100029 c -0.6930001 -0.84699965 -1.9690001 -2.6619997 -2.981 -4.2349997 c 0.032999992 -0.1650002 0.09900001 -0.46200013 0.429 -0.46200013 h 2.244 v -1.012 c 0 -0.506 -0.41799998 -0.506 -0.89100003 -0.53900003 c -0.065999985 -0.065999985 -0.065999985 -0.297 0 -0.36299998 c 0.352 0.011 0.79200006 0.022 1.2980001 0.022 c 0.4289999 0 0.8470001 -0.011 1.1989999 -0.022 c 0.065999985 0.066 0.065999985 0.297 0 0.36299998 c -0.53900003 0.044 -0.77 0.022000015 -0.77 0.53900003 v 1.012 h 0.7590003 c 0.1539998 0 0.31899977 0.20900011 0.31899977 0.34100008 c 0 0.109999895 -0.04400015 0.17599988 -0.16499996 0.17599988 Z m -1.7490001 3.1680002 v -3.1680002 h -2.1009998 c 0.561 0.90199995 1.3419999 2.1339998 2.1009998 3.1680002 Z "/>
        </symbol>
    </defs>
</svg>
